<svg width="2085" height="677" viewBox="0 0 2085 677" fill="none" xmlns="http://www.w3.org/2000/svg">
<path d="M364.415 41.203C402.287 18.4472 451.436 30.7014 474.191 68.5734L479.342 77.1451C502.098 115.017 489.843 164.166 451.971 186.921L179.733 350.499C141.861 373.255 92.7124 361 69.9566 323.128L64.8062 314.557C42.0504 276.685 54.3045 227.536 92.1766 204.78L364.415 41.203Z" fill="#0047A0"/>
<path d="M89.7283 357.746C59.0841 337.613 46.0494 299.225 58.0989 264.595L62.995 250.524C80.234 200.98 139.69 181.156 183.213 210.441L452.954 391.943C489.188 416.324 499.173 465.259 475.386 501.887L469.467 511.003C445.312 548.197 395.511 558.644 358.446 534.292L89.7283 357.746Z" fill="#0047A0"/>
<path d="M51.6025 110C51.6025 65.8172 87.4198 30 131.603 30H141.603C185.785 30 221.603 65.8172 221.603 110L221.603 470C221.603 514.183 185.785 550 141.603 550H131.603C87.4198 550 51.6025 514.183 51.6025 470L51.6025 110Z" fill="#CD2E3A" fill-opacity="0.88"/>
<path d="M1316.32 264.246C1327.72 254.387 1342.3 248.962 1357.37 248.962H1503.56C1528.11 248.962 1548 268.857 1548 293.399V369.551C1548 454.445 1488.2 527.59 1405 544.462C1371.19 547.96 1339.54 527.32 1329.1 494.967L1312.57 443.689C1307.32 427.397 1318.04 410.31 1335 407.962L1346 406.962L1356 405.462L1362 403.962L1367 402.462L1372.5 400.462L1376 398.962L1385 394.462L1400 386.962L1369.5 389.962H1362.81C1358.94 389.962 1355.08 389.662 1351.26 389.065L1350.44 388.937C1344.18 387.959 1338.08 386.12 1332.32 383.474C1325.81 380.484 1319.81 376.499 1314.53 371.661L1312.57 369.86C1307.24 364.975 1302.91 359.1 1299.83 352.563C1297.29 347.197 1295.63 341.461 1294.9 335.572L1293.71 325.889C1292.26 314.121 1293.75 302.177 1298.03 291.123L1298.85 289.027C1302.56 279.463 1308.56 270.955 1316.32 264.246Z" fill="#446248"/>
<path d="M1076 281.509C1076 144.004 1187.05 32.312 1324.55 31.5128L1333.22 31.4624L1365.68 32.9581L1399.46 39.3606C1403.24 40.0769 1406.96 41.065 1410.6 42.3171L1434.11 50.4078L1456.33 59.3588C1460.49 61.0331 1464.5 63.0537 1468.31 65.3994L1472.29 67.8442C1478.77 71.8212 1484.64 76.7004 1489.74 82.3346L1496.04 89.2957L1499.75 94.7494C1503.58 100.384 1506.48 106.593 1508.36 113.144C1509.8 118.166 1510.61 123.345 1510.8 128.566L1510.97 133.487C1511.32 143.676 1509.39 153.815 1505.34 163.167C1501.81 171.287 1496.75 178.649 1490.43 184.845L1487.65 187.567C1479.05 195.999 1468.28 201.883 1456.54 204.568C1449.62 206.15 1442.49 206.591 1435.43 205.874L1427.53 205.072C1420.34 204.342 1413.39 202.096 1407.14 198.481L1391.5 190.504C1386.95 188.183 1382.19 186.302 1377.28 184.889L1365.24 181.421C1360.88 180.166 1356.42 179.284 1351.92 178.785L1344.23 177.932C1338.9 177.341 1333.52 177.287 1328.18 177.772L1319.07 178.599C1312.21 179.221 1305.47 180.724 1299 183.072L1293.05 185.234C1285.25 188.065 1277.93 192.093 1271.37 197.173L1263.36 203.374C1259 206.75 1255 210.569 1251.42 214.768L1248.08 218.697C1242.61 225.122 1238.19 232.372 1234.98 240.178L1229.74 252.957C1228.14 256.848 1226.93 260.886 1226.13 265.015L1225.83 266.55C1222.53 283.537 1222.09 300.956 1224.54 318.086C1225.07 321.767 1225.94 325.392 1227.13 328.914L1229.54 336.01C1233.35 347.22 1239.6 357.446 1247.84 365.95L1263.81 382.437C1273.86 392.812 1286.95 399.717 1301.19 402.15L1323.12 405.899C1342.01 409.128 1361.44 406.243 1378.57 397.664L1400 386.938L1417.19 384.549C1422.38 383.827 1427.64 383.713 1432.85 384.21C1451.15 385.952 1467.95 395.092 1479.34 409.513L1483.79 415.14C1485.93 417.842 1487.82 420.722 1489.47 423.75C1493.12 430.495 1495.45 437.88 1496.32 445.503L1496.34 445.682C1496.78 449.527 1496.85 453.405 1496.55 457.263L1496.06 463.746C1495.36 472.819 1493.07 481.7 1489.3 489.981C1481.38 507.356 1467.33 521.204 1449.85 528.876L1433.82 535.907C1429.95 537.608 1425.94 538.998 1421.85 540.065L1394.14 547.284C1377.12 551.717 1359.59 553.886 1342.01 553.736L1323.86 553.581C1186.63 552.408 1076 440.827 1076 303.59V292.21V281.509Z" fill="url(#paint0_linear_11_136)" fill-opacity="0.97"/>
<path d="M728.203 72.2634C745.86 36.2687 789.629 20.8248 825.964 37.7684C862.3 54.712 877.442 97.6269 859.786 133.621L676.552 507.165C658.896 543.16 615.127 558.604 578.791 541.66C542.456 524.717 527.313 481.802 544.969 445.807L728.203 72.2634Z" fill="#FFD574"/>
<path d="M729.475 133.532C711.818 97.5376 726.961 54.6227 763.296 37.6791C799.632 20.7355 843.401 36.1794 861.057 72.1741L1044.29 445.718C1061.95 481.712 1046.81 524.627 1010.47 541.571C974.134 558.515 930.365 543.071 912.708 507.076L729.475 133.532Z" fill="#686868"/>
<path d="M1603 138.636C1603 107.314 1603 91.6527 1607.6 79.125C1615.2 58.4728 1631.47 42.1959 1652.12 34.6048C1664.65 30 1680.31 30 1711.64 30L1821 30C1825.64 30 1827.96 30 1829.93 30.0302C1967.69 32.1519 2078.85 143.314 2080.97 281.073C2081 283.036 2081 285.358 2081 290H1923.68C1923.68 282.572 1923.68 278.857 1923.49 275.721C1920.31 222.675 1878 180.366 1824.96 177.188C1821.82 177 1818.11 177 1810.68 177H1759.82V404H1809.68C1818.03 404 1822.21 404 1825.74 403.762C1878.16 400.228 1919.9 358.487 1923.44 306.063C1923.68 302.536 1923.68 298.357 1923.68 290H2081C2081 294.642 2081 296.964 2080.97 298.927C2078.85 436.686 1967.69 547.848 1829.93 549.97C1827.96 550 1825.64 550 1821 550H1711.64C1680.31 550 1664.65 550 1652.12 545.395C1631.47 537.804 1615.2 521.527 1607.6 500.875C1603 488.347 1603 472.687 1603 441.366C1603 370.074 1603 290 1603 290V138.636Z" fill="#0F298F"/>
<path d="M77.195 660H66.764L57.986 642.843L54.737 645.465V660H45.503V619.302H54.737V637.941C55.231 637.143 55.744 636.345 56.276 635.547C56.846 634.749 57.397 633.951 57.929 633.153L67.106 619.302H77.252L64.598 637.314L77.195 660ZM108.475 644.382C108.475 646.966 108.133 649.265 107.449 651.279C106.803 653.293 105.853 655.003 104.599 656.409C103.345 657.777 101.806 658.822 99.9816 659.544C98.1956 660.228 96.1816 660.57 93.9396 660.57C91.8496 660.57 89.9116 660.228 88.1256 659.544C86.3396 658.822 84.8006 657.777 83.5086 656.409C82.2546 655.003 81.2666 653.293 80.5446 651.279C79.8606 649.265 79.5186 646.966 79.5186 644.382C79.5186 640.924 80.1076 638.017 81.2856 635.661C82.4636 633.267 84.1356 631.443 86.3016 630.189C88.4676 628.935 91.0706 628.308 94.1106 628.308C96.9226 628.308 99.3926 628.935 101.521 630.189C103.687 631.443 105.378 633.267 106.594 635.661C107.848 638.017 108.475 640.924 108.475 644.382ZM88.8096 644.382C88.8096 646.434 88.9806 648.163 89.3226 649.569C89.7026 650.937 90.2726 651.982 91.0326 652.704C91.8306 653.388 92.8376 653.73 94.0536 653.73C95.3076 653.73 96.2956 653.388 97.0176 652.704C97.7776 651.982 98.3286 650.937 98.6706 649.569C99.0126 648.163 99.1836 646.434 99.1836 644.382C99.1836 642.33 99.0126 640.62 98.6706 639.252C98.3286 637.884 97.7586 636.858 96.9606 636.174C96.2006 635.49 95.2126 635.148 93.9966 635.148C92.1346 635.148 90.8046 635.927 90.0066 637.485C89.2086 639.005 88.8096 641.304 88.8096 644.382ZM131.779 628.308C132.273 628.308 132.805 628.327 133.375 628.365C133.945 628.403 134.382 628.46 134.686 628.536L133.945 636.516C133.641 636.44 133.242 636.383 132.748 636.345C132.254 636.269 131.684 636.231 131.038 636.231C130.202 636.231 129.347 636.383 128.473 636.687C127.637 636.953 126.858 637.39 126.136 637.998C125.452 638.606 124.882 639.423 124.426 640.449C124.008 641.437 123.799 642.672 123.799 644.154V660H114.679V628.878H121.519L122.887 634.122H123.343C123.913 633.058 124.616 632.089 125.452 631.215C126.288 630.341 127.238 629.638 128.302 629.106C129.404 628.574 130.563 628.308 131.779 628.308ZM151.047 628.308C153.821 628.308 156.215 628.859 158.229 629.961C160.243 631.063 161.801 632.659 162.903 634.749C164.005 636.839 164.556 639.404 164.556 642.444V646.548H146.031C146.107 648.942 146.715 650.823 147.855 652.191C149.033 653.559 150.705 654.243 152.871 654.243C154.771 654.243 156.481 654.053 158.001 653.673C159.559 653.255 161.155 652.628 162.789 651.792V658.347C161.383 659.107 159.844 659.658 158.172 660C156.538 660.38 154.505 660.57 152.073 660.57C149.109 660.57 146.468 660 144.15 658.86C141.87 657.682 140.065 655.915 138.735 653.559C137.443 651.203 136.797 648.239 136.797 644.667C136.797 641.019 137.386 637.998 138.564 635.604C139.78 633.172 141.452 631.348 143.58 630.132C145.746 628.916 148.235 628.308 151.047 628.308ZM151.218 634.35C149.85 634.35 148.71 634.882 147.798 635.946C146.886 637.01 146.354 638.663 146.202 640.905H156.177C156.177 639.651 155.987 638.53 155.607 637.542C155.227 636.554 154.676 635.775 153.954 635.205C153.232 634.635 152.32 634.35 151.218 634.35ZM183.956 628.251C187.794 628.251 190.758 629.163 192.848 630.987C194.976 632.773 196.04 635.528 196.04 639.252V660H189.713L187.946 655.782H187.718C186.882 656.884 186.027 657.796 185.153 658.518C184.279 659.24 183.272 659.753 182.132 660.057C180.992 660.399 179.605 660.57 177.971 660.57C176.261 660.57 174.722 660.228 173.354 659.544C172.024 658.822 170.96 657.739 170.162 656.295C169.364 654.813 168.965 652.951 168.965 650.709C168.965 647.403 170.048 644.971 172.214 643.413C174.418 641.817 177.648 640.943 181.904 640.791L186.92 640.62V639.252C186.92 637.618 186.559 636.421 185.837 635.661C185.115 634.901 184.127 634.521 182.873 634.521C181.581 634.521 180.232 634.749 178.826 635.205C177.42 635.623 176.014 636.155 174.608 636.801L171.815 631.044C173.487 630.17 175.33 629.486 177.344 628.992C179.396 628.498 181.6 628.251 183.956 628.251ZM184.298 645.693C182.056 645.769 180.479 646.263 179.567 647.175C178.693 648.087 178.256 649.284 178.256 650.766C178.256 652.058 178.56 652.989 179.168 653.559C179.814 654.091 180.65 654.357 181.676 654.357C183.12 654.357 184.355 653.825 185.381 652.761C186.445 651.659 186.977 650.12 186.977 648.144V645.579L184.298 645.693ZM241.6 660L239.263 650.31H226.096L223.702 660H213.67L226.666 619.131H238.522L251.575 660H241.6ZM234.589 633.609C234.361 632.811 234.133 631.975 233.905 631.101C233.677 630.227 233.449 629.315 233.221 628.365C233.031 627.415 232.841 626.446 232.651 625.458C232.499 626.446 232.309 627.434 232.081 628.422C231.853 629.372 231.625 630.284 231.397 631.158C231.207 632.032 230.998 632.849 230.77 633.609L228.148 643.071H237.268L234.589 633.609ZM276.657 650.766C276.657 652.856 276.201 654.642 275.289 656.124C274.415 657.568 273.066 658.67 271.242 659.43C269.418 660.19 267.062 660.57 264.174 660.57C262.084 660.57 260.26 660.418 258.702 660.114C257.144 659.848 255.567 659.392 253.971 658.746V651.735C255.719 652.495 257.524 653.122 259.386 653.616C261.248 654.11 262.806 654.357 264.06 654.357C265.428 654.357 266.397 654.11 266.967 653.616C267.575 653.122 267.879 652.476 267.879 651.678C267.879 651.146 267.727 650.671 267.423 650.253C267.119 649.835 266.511 649.36 265.599 648.828C264.687 648.296 263.338 647.612 261.552 646.776C259.804 645.94 258.36 645.123 257.22 644.325C256.118 643.489 255.282 642.501 254.712 641.361C254.18 640.183 253.914 638.72 253.914 636.972C253.914 634.084 254.997 631.918 257.163 630.474C259.367 629.03 262.255 628.308 265.827 628.308C267.727 628.308 269.513 628.498 271.185 628.878C272.857 629.258 274.586 629.885 276.372 630.759L273.807 636.858C272.819 636.402 271.85 636.003 270.9 635.661C269.95 635.319 269.038 635.053 268.164 634.863C267.328 634.673 266.53 634.578 265.77 634.578C264.782 634.578 264.022 634.749 263.49 635.091C262.996 635.433 262.749 635.946 262.749 636.63C262.749 637.124 262.901 637.58 263.205 637.998C263.509 638.378 264.098 638.815 264.972 639.309C265.846 639.765 267.119 640.354 268.791 641.076C270.501 641.798 271.926 642.558 273.066 643.356C274.244 644.116 275.137 645.085 275.745 646.263C276.353 647.403 276.657 648.904 276.657 650.766ZM303.821 650.766C303.821 652.856 303.365 654.642 302.453 656.124C301.579 657.568 300.23 658.67 298.406 659.43C296.582 660.19 294.226 660.57 291.338 660.57C289.248 660.57 287.424 660.418 285.866 660.114C284.308 659.848 282.731 659.392 281.135 658.746V651.735C282.883 652.495 284.688 653.122 286.55 653.616C288.412 654.11 289.97 654.357 291.224 654.357C292.592 654.357 293.561 654.11 294.131 653.616C294.739 653.122 295.043 652.476 295.043 651.678C295.043 651.146 294.891 650.671 294.587 650.253C294.283 649.835 293.675 649.36 292.763 648.828C291.851 648.296 290.502 647.612 288.716 646.776C286.968 645.94 285.524 645.123 284.384 644.325C283.282 643.489 282.446 642.501 281.876 641.361C281.344 640.183 281.078 638.72 281.078 636.972C281.078 634.084 282.161 631.918 284.327 630.474C286.531 629.03 289.419 628.308 292.991 628.308C294.891 628.308 296.677 628.498 298.349 628.878C300.021 629.258 301.75 629.885 303.536 630.759L300.971 636.858C299.983 636.402 299.014 636.003 298.064 635.661C297.114 635.319 296.202 635.053 295.328 634.863C294.492 634.673 293.694 634.578 292.934 634.578C291.946 634.578 291.186 634.749 290.654 635.091C290.16 635.433 289.913 635.946 289.913 636.63C289.913 637.124 290.065 637.58 290.369 637.998C290.673 638.378 291.262 638.815 292.136 639.309C293.01 639.765 294.283 640.354 295.955 641.076C297.665 641.798 299.09 642.558 300.23 643.356C301.408 644.116 302.301 645.085 302.909 646.263C303.517 647.403 303.821 648.904 303.821 650.766ZM337.198 644.382C337.198 646.966 336.856 649.265 336.172 651.279C335.526 653.293 334.576 655.003 333.322 656.409C332.068 657.777 330.529 658.822 328.705 659.544C326.919 660.228 324.905 660.57 322.663 660.57C320.573 660.57 318.635 660.228 316.849 659.544C315.063 658.822 313.524 657.777 312.232 656.409C310.978 655.003 309.99 653.293 309.268 651.279C308.584 649.265 308.242 646.966 308.242 644.382C308.242 640.924 308.831 638.017 310.009 635.661C311.187 633.267 312.859 631.443 315.025 630.189C317.191 628.935 319.794 628.308 322.834 628.308C325.646 628.308 328.116 628.935 330.244 630.189C332.41 631.443 334.101 633.267 335.317 635.661C336.571 638.017 337.198 640.924 337.198 644.382ZM317.533 644.382C317.533 646.434 317.704 648.163 318.046 649.569C318.426 650.937 318.996 651.982 319.756 652.704C320.554 653.388 321.561 653.73 322.777 653.73C324.031 653.73 325.019 653.388 325.741 652.704C326.501 651.982 327.052 650.937 327.394 649.569C327.736 648.163 327.907 646.434 327.907 644.382C327.907 642.33 327.736 640.62 327.394 639.252C327.052 637.884 326.482 636.858 325.684 636.174C324.924 635.49 323.936 635.148 322.72 635.148C320.858 635.148 319.528 635.927 318.73 637.485C317.932 639.005 317.533 641.304 317.533 644.382ZM356.113 660.57C353.149 660.57 350.603 660.019 348.475 658.917C346.347 657.777 344.713 656.029 343.573 653.673C342.433 651.317 341.863 648.296 341.863 644.61C341.863 640.81 342.49 637.713 343.744 635.319C345.036 632.925 346.803 631.158 349.045 630.018C351.325 628.878 353.928 628.308 356.854 628.308C358.754 628.308 360.521 628.517 362.155 628.935C363.789 629.353 365.157 629.847 366.259 630.417L363.58 636.801C362.44 636.307 361.395 635.908 360.445 635.604C359.533 635.3 358.526 635.148 357.424 635.148C356.094 635.148 354.954 635.509 354.004 636.231C353.092 636.915 352.389 637.96 351.895 639.366C351.401 640.734 351.154 642.463 351.154 644.553C351.154 646.605 351.401 648.315 351.895 649.683C352.427 651.013 353.149 652.02 354.061 652.704C355.011 653.35 356.132 653.673 357.424 653.673C358.868 653.673 360.236 653.445 361.528 652.989C362.858 652.495 364.112 651.83 365.29 650.994V658.233C364.036 659.069 362.687 659.658 361.243 660C359.837 660.38 358.127 660.57 356.113 660.57ZM380.744 628.878V660H371.624V628.878H380.744ZM376.241 616.68C377.571 616.68 378.711 616.984 379.661 617.592C380.611 618.162 381.086 619.245 381.086 620.841C381.086 622.399 380.611 623.482 379.661 624.09C378.711 624.698 377.571 625.002 376.241 625.002C374.873 625.002 373.714 624.698 372.764 624.09C371.814 623.482 371.339 622.399 371.339 620.841C371.339 619.245 371.814 618.162 372.764 617.592C373.714 616.984 374.873 616.68 376.241 616.68ZM401.714 628.251C405.552 628.251 408.516 629.163 410.606 630.987C412.734 632.773 413.798 635.528 413.798 639.252V660H407.471L405.704 655.782H405.476C404.64 656.884 403.785 657.796 402.911 658.518C402.037 659.24 401.03 659.753 399.89 660.057C398.75 660.399 397.363 660.57 395.729 660.57C394.019 660.57 392.48 660.228 391.112 659.544C389.782 658.822 388.718 657.739 387.92 656.295C387.122 654.813 386.723 652.951 386.723 650.709C386.723 647.403 387.806 644.971 389.972 643.413C392.176 641.817 395.406 640.943 399.662 640.791L404.678 640.62V639.252C404.678 637.618 404.317 636.421 403.595 635.661C402.873 634.901 401.885 634.521 400.631 634.521C399.339 634.521 397.99 634.749 396.584 635.205C395.178 635.623 393.772 636.155 392.366 636.801L389.573 631.044C391.245 630.17 393.088 629.486 395.102 628.992C397.154 628.498 399.358 628.251 401.714 628.251ZM402.056 645.693C399.814 645.769 398.237 646.263 397.325 647.175C396.451 648.087 396.014 649.284 396.014 650.766C396.014 652.058 396.318 652.989 396.926 653.559C397.572 654.091 398.408 654.357 399.434 654.357C400.878 654.357 402.113 653.825 403.139 652.761C404.203 651.659 404.735 650.12 404.735 648.144V645.579L402.056 645.693ZM434.783 653.787C435.695 653.787 436.531 653.692 437.291 653.502C438.089 653.312 438.906 653.084 439.742 652.818V659.145C438.792 659.525 437.671 659.848 436.379 660.114C435.125 660.418 433.643 660.57 431.933 660.57C430.109 660.57 428.475 660.266 427.031 659.658C425.625 659.05 424.523 658.005 423.725 656.523C422.927 655.003 422.528 652.913 422.528 650.253V635.262H418.823V631.671L423.269 628.821L425.777 622.266H431.648V628.878H439.4V635.262H431.648V650.253C431.648 651.431 431.933 652.324 432.503 652.932C433.073 653.502 433.833 653.787 434.783 653.787ZM454.443 628.878V660H445.323V628.878H454.443ZM449.94 616.68C451.27 616.68 452.41 616.984 453.36 617.592C454.31 618.162 454.785 619.245 454.785 620.841C454.785 622.399 454.31 623.482 453.36 624.09C452.41 624.698 451.27 625.002 449.94 625.002C448.572 625.002 447.413 624.698 446.463 624.09C445.513 623.482 445.038 622.399 445.038 620.841C445.038 619.245 445.513 618.162 446.463 617.592C447.413 616.984 448.572 616.68 449.94 616.68ZM489.606 644.382C489.606 646.966 489.264 649.265 488.58 651.279C487.934 653.293 486.984 655.003 485.73 656.409C484.476 657.777 482.937 658.822 481.113 659.544C479.327 660.228 477.313 660.57 475.071 660.57C472.981 660.57 471.043 660.228 469.257 659.544C467.471 658.822 465.932 657.777 464.64 656.409C463.386 655.003 462.398 653.293 461.676 651.279C460.992 649.265 460.65 646.966 460.65 644.382C460.65 640.924 461.239 638.017 462.417 635.661C463.595 633.267 465.267 631.443 467.433 630.189C469.599 628.935 472.202 628.308 475.242 628.308C478.054 628.308 480.524 628.935 482.652 630.189C484.818 631.443 486.509 633.267 487.725 635.661C488.979 638.017 489.606 640.924 489.606 644.382ZM469.941 644.382C469.941 646.434 470.112 648.163 470.454 649.569C470.834 650.937 471.404 651.982 472.164 652.704C472.962 653.388 473.969 653.73 475.185 653.73C476.439 653.73 477.427 653.388 478.149 652.704C478.909 651.982 479.46 650.937 479.802 649.569C480.144 648.163 480.315 646.434 480.315 644.382C480.315 642.33 480.144 640.62 479.802 639.252C479.46 637.884 478.89 636.858 478.092 636.174C477.332 635.49 476.344 635.148 475.128 635.148C473.266 635.148 471.936 635.927 471.138 637.485C470.34 639.005 469.941 641.304 469.941 644.382ZM513.367 628.308C516.483 628.308 518.991 629.22 520.891 631.044C522.829 632.83 523.798 635.718 523.798 639.708V660H514.678V641.817C514.678 639.575 514.336 637.903 513.652 636.801C513.006 635.661 511.961 635.091 510.517 635.091C508.313 635.091 506.831 635.984 506.071 637.77C505.311 639.518 504.931 642.045 504.931 645.351V660H495.811V628.878H502.708L503.962 632.868H504.361C505.007 631.804 505.767 630.949 506.641 630.303C507.553 629.619 508.579 629.125 509.719 628.821C510.859 628.479 512.075 628.308 513.367 628.308ZM572.713 644.382C572.713 646.966 572.371 649.265 571.687 651.279C571.041 653.293 570.091 655.003 568.837 656.409C567.583 657.777 566.044 658.822 564.22 659.544C562.434 660.228 560.42 660.57 558.178 660.57C556.088 660.57 554.15 660.228 552.364 659.544C550.578 658.822 549.039 657.777 547.747 656.409C546.493 655.003 545.505 653.293 544.783 651.279C544.099 649.265 543.757 646.966 543.757 644.382C543.757 640.924 544.346 638.017 545.524 635.661C546.702 633.267 548.374 631.443 550.54 630.189C552.706 628.935 555.309 628.308 558.349 628.308C561.161 628.308 563.631 628.935 565.759 630.189C567.925 631.443 569.616 633.267 570.832 635.661C572.086 638.017 572.713 640.924 572.713 644.382ZM553.048 644.382C553.048 646.434 553.219 648.163 553.561 649.569C553.941 650.937 554.511 651.982 555.271 652.704C556.069 653.388 557.076 653.73 558.292 653.73C559.546 653.73 560.534 653.388 561.256 652.704C562.016 651.982 562.567 650.937 562.909 649.569C563.251 648.163 563.422 646.434 563.422 644.382C563.422 642.33 563.251 640.62 562.909 639.252C562.567 637.884 561.997 636.858 561.199 636.174C560.439 635.49 559.451 635.148 558.235 635.148C556.373 635.148 555.043 635.927 554.245 637.485C553.447 639.005 553.048 641.304 553.048 644.382ZM596.074 635.262H589.462V660H580.342V635.262H576.181V631.158L580.456 628.878V626.598C580.456 623.938 580.836 621.886 581.596 620.442C582.356 618.96 583.496 617.915 585.016 617.307C586.536 616.699 588.417 616.395 590.659 616.395C592.217 616.395 593.623 616.528 594.877 616.794C596.131 617.06 597.29 617.364 598.354 617.706L596.245 623.919C595.675 623.729 595.048 623.558 594.364 623.406C593.718 623.216 592.996 623.121 592.198 623.121C591.248 623.121 590.545 623.482 590.089 624.204C589.671 624.926 589.462 625.838 589.462 626.94V628.878H596.074V635.262ZM631.478 625.914C630.11 625.914 628.875 626.237 627.773 626.883C626.709 627.529 625.797 628.46 625.037 629.676C624.277 630.854 623.707 632.298 623.327 634.008C622.947 635.718 622.757 637.637 622.757 639.765C622.757 642.653 623.08 645.123 623.726 647.175C624.372 649.189 625.36 650.728 626.69 651.792C628.02 652.856 629.711 653.388 631.763 653.388C633.397 653.388 634.993 653.198 636.551 652.818C638.147 652.438 639.8 651.906 641.51 651.222V658.461C639.838 659.183 638.147 659.715 636.437 660.057C634.727 660.399 632.865 660.57 630.851 660.57C626.785 660.57 623.46 659.715 620.876 658.005C618.292 656.257 616.373 653.825 615.119 650.709C613.903 647.555 613.295 643.888 613.295 639.708C613.295 636.63 613.694 633.818 614.492 631.272C615.29 628.688 616.468 626.465 618.026 624.603C619.584 622.741 621.484 621.297 623.726 620.271C626.006 619.245 628.609 618.732 631.535 618.732C633.435 618.732 635.43 618.998 637.52 619.53C639.648 620.024 641.491 620.708 643.049 621.582L640.142 628.593C638.736 627.871 637.311 627.244 635.867 626.712C634.461 626.18 632.998 625.914 631.478 625.914ZM676.081 644.382C676.081 646.966 675.739 649.265 675.055 651.279C674.409 653.293 673.459 655.003 672.205 656.409C670.951 657.777 669.412 658.822 667.588 659.544C665.802 660.228 663.788 660.57 661.546 660.57C659.456 660.57 657.518 660.228 655.732 659.544C653.946 658.822 652.407 657.777 651.115 656.409C649.861 655.003 648.873 653.293 648.151 651.279C647.467 649.265 647.125 646.966 647.125 644.382C647.125 640.924 647.714 638.017 648.892 635.661C650.07 633.267 651.742 631.443 653.908 630.189C656.074 628.935 658.677 628.308 661.717 628.308C664.529 628.308 666.999 628.935 669.127 630.189C671.293 631.443 672.984 633.267 674.2 635.661C675.454 638.017 676.081 640.924 676.081 644.382ZM656.416 644.382C656.416 646.434 656.587 648.163 656.929 649.569C657.309 650.937 657.879 651.982 658.639 652.704C659.437 653.388 660.444 653.73 661.66 653.73C662.914 653.73 663.902 653.388 664.624 652.704C665.384 651.982 665.935 650.937 666.277 649.569C666.619 648.163 666.79 646.434 666.79 644.382C666.79 642.33 666.619 640.62 666.277 639.252C665.935 637.884 665.365 636.858 664.567 636.174C663.807 635.49 662.819 635.148 661.603 635.148C659.741 635.148 658.411 635.927 657.613 637.485C656.815 639.005 656.416 641.304 656.416 644.382ZM717.511 628.308C720.893 628.308 723.439 629.22 725.149 631.044C726.897 632.83 727.771 635.718 727.771 639.708V660H718.708V641.817C718.708 639.575 718.366 637.903 717.682 636.801C717.036 635.661 716.048 635.091 714.718 635.091C712.818 635.091 711.488 635.889 710.728 637.485C709.968 639.081 709.588 641.38 709.588 644.382V660H700.468V641.817C700.468 640.335 700.316 639.1 700.012 638.112C699.746 637.124 699.328 636.383 698.758 635.889C698.188 635.357 697.428 635.091 696.478 635.091C695.186 635.091 694.16 635.49 693.4 636.288C692.678 637.086 692.165 638.245 691.861 639.765C691.557 641.285 691.405 643.147 691.405 645.351V660H682.285V628.878H689.182L690.493 632.868H690.835C691.405 631.804 692.108 630.949 692.944 630.303C693.818 629.619 694.806 629.125 695.908 628.821C697.048 628.479 698.264 628.308 699.556 628.308C701.684 628.308 703.47 628.688 704.914 629.448C706.396 630.17 707.555 631.31 708.391 632.868H708.904C709.816 631.272 711.032 630.113 712.552 629.391C714.11 628.669 715.763 628.308 717.511 628.308ZM770.559 628.308C773.941 628.308 776.487 629.22 778.197 631.044C779.945 632.83 780.819 635.718 780.819 639.708V660H771.756V641.817C771.756 639.575 771.414 637.903 770.73 636.801C770.084 635.661 769.096 635.091 767.766 635.091C765.866 635.091 764.536 635.889 763.776 637.485C763.016 639.081 762.636 641.38 762.636 644.382V660H753.516V641.817C753.516 640.335 753.364 639.1 753.06 638.112C752.794 637.124 752.376 636.383 751.806 635.889C751.236 635.357 750.476 635.091 749.526 635.091C748.234 635.091 747.208 635.49 746.448 636.288C745.726 637.086 745.213 638.245 744.909 639.765C744.605 641.285 744.453 643.147 744.453 645.351V660H735.333V628.878H742.23L743.541 632.868H743.883C744.453 631.804 745.156 630.949 745.992 630.303C746.866 629.619 747.854 629.125 748.956 628.821C750.096 628.479 751.312 628.308 752.604 628.308C754.732 628.308 756.518 628.688 757.962 629.448C759.444 630.17 760.603 631.31 761.439 632.868H761.952C762.864 631.272 764.08 630.113 765.6 629.391C767.158 628.669 768.811 628.308 770.559 628.308ZM816.197 628.878V660H809.3L808.103 656.01H807.59C806.982 657.074 806.203 657.948 805.253 658.632C804.341 659.278 803.315 659.753 802.175 660.057C801.035 660.399 799.857 660.57 798.641 660.57C796.627 660.57 794.841 660.171 793.283 659.373C791.725 658.575 790.49 657.34 789.578 655.668C788.704 653.996 788.267 651.83 788.267 649.17V628.878H797.387V647.061C797.387 649.265 797.71 650.937 798.356 652.077C799.002 653.217 800.047 653.787 801.491 653.787C802.973 653.787 804.113 653.388 804.911 652.59C805.709 651.792 806.26 650.633 806.564 649.113C806.906 647.593 807.077 645.731 807.077 643.527V628.878H816.197ZM841.506 628.308C844.622 628.308 847.13 629.22 849.03 631.044C850.968 632.83 851.937 635.718 851.937 639.708V660H842.817V641.817C842.817 639.575 842.475 637.903 841.791 636.801C841.145 635.661 840.1 635.091 838.656 635.091C836.452 635.091 834.97 635.984 834.21 637.77C833.45 639.518 833.07 642.045 833.07 645.351V660H823.95V628.878H830.847L832.101 632.868H832.5C833.146 631.804 833.906 630.949 834.78 630.303C835.692 629.619 836.718 629.125 837.858 628.821C838.998 628.479 840.214 628.308 841.506 628.308ZM868.64 628.878V660H859.52V628.878H868.64ZM864.137 616.68C865.467 616.68 866.607 616.984 867.557 617.592C868.507 618.162 868.982 619.245 868.982 620.841C868.982 622.399 868.507 623.482 867.557 624.09C866.607 624.698 865.467 625.002 864.137 625.002C862.769 625.002 861.61 624.698 860.66 624.09C859.71 623.482 859.235 622.399 859.235 620.841C859.235 619.245 859.71 618.162 860.66 617.592C861.61 616.984 862.769 616.68 864.137 616.68ZM889.781 653.787C890.693 653.787 891.529 653.692 892.289 653.502C893.087 653.312 893.904 653.084 894.74 652.818V659.145C893.79 659.525 892.669 659.848 891.377 660.114C890.123 660.418 888.641 660.57 886.931 660.57C885.107 660.57 883.473 660.266 882.029 659.658C880.623 659.05 879.521 658.005 878.723 656.523C877.925 655.003 877.526 652.913 877.526 650.253V635.262H873.821V631.671L878.267 628.821L880.775 622.266H886.646V628.878H894.398V635.262H886.646V650.253C886.646 651.431 886.931 652.324 887.501 652.932C888.071 653.502 888.831 653.787 889.781 653.787ZM896.445 628.878H906.192L911.379 646.377C911.569 646.909 911.702 647.479 911.778 648.087C911.892 648.657 911.968 649.246 912.006 649.854C912.082 650.462 912.139 651.108 912.177 651.792H912.405C912.481 650.804 912.576 649.873 912.69 648.999C912.842 648.087 913.051 647.213 913.317 646.377L918.504 628.878H928.08L915.882 663.933C915.122 666.099 914.153 667.904 912.975 669.348C911.797 670.792 910.372 671.875 908.7 672.597C907.028 673.319 905.071 673.68 902.829 673.68C901.917 673.68 901.119 673.623 900.435 673.509C899.789 673.433 899.219 673.338 898.725 673.224V666.498C899.105 666.574 899.561 666.65 900.093 666.726C900.663 666.802 901.252 666.84 901.86 666.84C903 666.84 903.95 666.593 904.71 666.099C905.47 665.605 906.097 664.94 906.591 664.104C907.085 663.268 907.446 662.337 907.674 661.311L908.073 659.772L896.445 628.878ZM961.36 637.143H977.149V658.233C975.173 658.955 973.007 659.525 970.651 659.943C968.295 660.361 965.73 660.57 962.956 660.57C959.232 660.57 956.002 659.772 953.266 658.176C950.568 656.58 948.478 654.224 946.996 651.108C945.552 647.992 944.83 644.154 944.83 639.594C944.83 635.338 945.59 631.652 947.11 628.536C948.668 625.42 950.929 623.007 953.893 621.297C956.895 619.587 960.562 618.732 964.894 618.732C967.098 618.732 969.226 618.96 971.278 619.416C973.33 619.872 975.154 620.48 976.75 621.24L973.786 628.137C972.494 627.491 971.107 626.959 969.625 626.541C968.143 626.123 966.566 625.914 964.894 625.914C962.576 625.914 960.619 626.484 959.023 627.624C957.465 628.764 956.287 630.379 955.489 632.469C954.729 634.521 954.349 636.953 954.349 639.765C954.349 642.425 954.691 644.781 955.375 646.833C956.059 648.885 957.085 650.5 958.453 651.678C959.821 652.818 961.55 653.388 963.64 653.388C964.248 653.388 964.837 653.369 965.407 653.331C965.977 653.255 966.509 653.179 967.003 653.103C967.535 652.989 967.991 652.894 968.371 652.818V644.325H961.36V637.143ZM1002.14 628.308C1002.64 628.308 1003.17 628.327 1003.74 628.365C1004.31 628.403 1004.75 628.46 1005.05 628.536L1004.31 636.516C1004 636.44 1003.61 636.383 1003.11 636.345C1002.62 636.269 1002.05 636.231 1001.4 636.231C1000.57 636.231 999.71 636.383 998.836 636.687C998 636.953 997.221 637.39 996.499 637.998C995.815 638.606 995.245 639.423 994.789 640.449C994.371 641.437 994.162 642.672 994.162 644.154V660H985.042V628.878H991.882L993.25 634.122H993.706C994.276 633.058 994.979 632.089 995.815 631.215C996.651 630.341 997.601 629.638 998.665 629.106C999.767 628.574 1000.93 628.308 1002.14 628.308ZM1036.12 644.382C1036.12 646.966 1035.77 649.265 1035.09 651.279C1034.44 653.293 1033.49 655.003 1032.24 656.409C1030.99 657.777 1029.45 658.822 1027.62 659.544C1025.84 660.228 1023.82 660.57 1021.58 660.57C1019.49 660.57 1017.55 660.228 1015.77 659.544C1013.98 658.822 1012.44 657.777 1011.15 656.409C1009.9 655.003 1008.91 653.293 1008.19 651.279C1007.5 649.265 1007.16 646.966 1007.16 644.382C1007.16 640.924 1007.75 638.017 1008.93 635.661C1010.11 633.267 1011.78 631.443 1013.94 630.189C1016.11 628.935 1018.71 628.308 1021.75 628.308C1024.56 628.308 1027.03 628.935 1029.16 630.189C1031.33 631.443 1033.02 633.267 1034.24 635.661C1035.49 638.017 1036.12 640.924 1036.12 644.382ZM1016.45 644.382C1016.45 646.434 1016.62 648.163 1016.96 649.569C1017.34 650.937 1017.91 651.982 1018.67 652.704C1019.47 653.388 1020.48 653.73 1021.7 653.73C1022.95 653.73 1023.94 653.388 1024.66 652.704C1025.42 651.982 1025.97 650.937 1026.31 649.569C1026.65 648.163 1026.83 646.434 1026.83 644.382C1026.83 642.33 1026.65 640.62 1026.31 639.252C1025.97 637.884 1025.4 636.858 1024.6 636.174C1023.84 635.49 1022.85 635.148 1021.64 635.148C1019.78 635.148 1018.45 635.927 1017.65 637.485C1016.85 639.005 1016.45 641.304 1016.45 644.382ZM1070.14 628.878V660H1063.24L1062.04 656.01H1061.53C1060.92 657.074 1060.14 657.948 1059.19 658.632C1058.28 659.278 1057.25 659.753 1056.11 660.057C1054.97 660.399 1053.8 660.57 1052.58 660.57C1050.57 660.57 1048.78 660.171 1047.22 659.373C1045.66 658.575 1044.43 657.34 1043.52 655.668C1042.64 653.996 1042.21 651.83 1042.21 649.17V628.878H1051.33V647.061C1051.33 649.265 1051.65 650.937 1052.3 652.077C1052.94 653.217 1053.99 653.787 1055.43 653.787C1056.91 653.787 1058.05 653.388 1058.85 652.59C1059.65 651.792 1060.2 650.633 1060.5 649.113C1060.85 647.593 1061.02 645.731 1061.02 643.527V628.878H1070.14ZM1095.1 628.308C1098.37 628.308 1100.97 629.676 1102.91 632.412C1104.89 635.11 1105.88 639.1 1105.88 644.382C1105.88 647.916 1105.4 650.899 1104.45 653.331C1103.5 655.725 1102.19 657.53 1100.52 658.746C1098.85 659.962 1096.93 660.57 1094.76 660.57C1093.39 660.57 1092.22 660.38 1091.23 660C1090.24 659.62 1089.4 659.126 1088.72 658.518C1088.07 657.91 1087.5 657.264 1087.01 656.58H1086.61C1086.72 657.302 1086.82 658.062 1086.9 658.86C1086.97 659.62 1087.01 660.38 1087.01 661.14V673.68H1077.89V628.878H1085.3L1086.61 632.925H1087.01C1087.5 632.089 1088.11 631.329 1088.83 630.645C1089.56 629.923 1090.43 629.353 1091.46 628.935C1092.48 628.517 1093.7 628.308 1095.1 628.308ZM1091.85 635.091C1090.68 635.091 1089.73 635.395 1089 636.003C1088.28 636.611 1087.77 637.542 1087.47 638.796C1087.16 640.012 1087.01 641.551 1087.01 643.413V644.325C1087.01 646.339 1087.16 648.049 1087.47 649.455C1087.77 650.823 1088.28 651.868 1089 652.59C1089.73 653.312 1090.71 653.673 1091.97 653.673C1092.99 653.673 1093.85 653.312 1094.53 652.59C1095.22 651.868 1095.73 650.804 1096.07 649.398C1096.41 647.992 1096.59 646.282 1096.59 644.268C1096.59 641.228 1096.19 638.948 1095.39 637.428C1094.63 635.87 1093.45 635.091 1091.85 635.091ZM1158.7 660H1149.41V642.444H1135.84V660H1126.61V619.302H1135.84V635.262H1149.41V619.302H1158.7V660ZM1194.48 644.382C1194.48 646.966 1194.14 649.265 1193.45 651.279C1192.81 653.293 1191.86 655.003 1190.6 656.409C1189.35 657.777 1187.81 658.822 1185.99 659.544C1184.2 660.228 1182.19 660.57 1179.95 660.57C1177.86 660.57 1175.92 660.228 1174.13 659.544C1172.35 658.822 1170.81 657.777 1169.51 656.409C1168.26 655.003 1167.27 653.293 1166.55 651.279C1165.87 649.265 1165.52 646.966 1165.52 644.382C1165.52 640.924 1166.11 638.017 1167.29 635.661C1168.47 633.267 1170.14 631.443 1172.31 630.189C1174.47 628.935 1177.08 628.308 1180.12 628.308C1182.93 628.308 1185.4 628.935 1187.53 630.189C1189.69 631.443 1191.38 633.267 1192.6 635.661C1193.85 638.017 1194.48 640.924 1194.48 644.382ZM1174.82 644.382C1174.82 646.434 1174.99 648.163 1175.33 649.569C1175.71 650.937 1176.28 651.982 1177.04 652.704C1177.84 653.388 1178.84 653.73 1180.06 653.73C1181.31 653.73 1182.3 653.388 1183.02 652.704C1183.78 651.982 1184.33 650.937 1184.68 649.569C1185.02 648.163 1185.19 646.434 1185.19 644.382C1185.19 642.33 1185.02 640.62 1184.68 639.252C1184.33 637.884 1183.76 636.858 1182.97 636.174C1182.21 635.49 1181.22 635.148 1180 635.148C1178.14 635.148 1176.81 635.927 1176.01 637.485C1175.21 639.005 1174.82 641.304 1174.82 644.382ZM1235.91 628.308C1239.29 628.308 1241.84 629.22 1243.55 631.044C1245.3 632.83 1246.17 635.718 1246.17 639.708V660H1237.11V641.817C1237.11 639.575 1236.77 637.903 1236.08 636.801C1235.44 635.661 1234.45 635.091 1233.12 635.091C1231.22 635.091 1229.89 635.889 1229.13 637.485C1228.37 639.081 1227.99 641.38 1227.99 644.382V660H1218.87V641.817C1218.87 640.335 1218.72 639.1 1218.41 638.112C1218.15 637.124 1217.73 636.383 1217.16 635.889C1216.59 635.357 1215.83 635.091 1214.88 635.091C1213.59 635.091 1212.56 635.49 1211.8 636.288C1211.08 637.086 1210.56 638.245 1210.26 639.765C1209.96 641.285 1209.8 643.147 1209.8 645.351V660H1200.68V628.878H1207.58L1208.89 632.868H1209.23C1209.8 631.804 1210.51 630.949 1211.34 630.303C1212.22 629.619 1213.21 629.125 1214.31 628.821C1215.45 628.479 1216.66 628.308 1217.96 628.308C1220.08 628.308 1221.87 628.688 1223.31 629.448C1224.8 630.17 1225.95 631.31 1226.79 632.868H1227.3C1228.22 631.272 1229.43 630.113 1230.95 629.391C1232.51 628.669 1234.16 628.308 1235.91 628.308ZM1266.44 628.308C1269.22 628.308 1271.61 628.859 1273.63 629.961C1275.64 631.063 1277.2 632.659 1278.3 634.749C1279.4 636.839 1279.95 639.404 1279.95 642.444V646.548H1261.43C1261.5 648.942 1262.11 650.823 1263.25 652.191C1264.43 653.559 1266.1 654.243 1268.27 654.243C1270.17 654.243 1271.88 654.053 1273.4 653.673C1274.96 653.255 1276.55 652.628 1278.19 651.792V658.347C1276.78 659.107 1275.24 659.658 1273.57 660C1271.93 660.38 1269.9 660.57 1267.47 660.57C1264.51 660.57 1261.86 660 1259.55 658.86C1257.27 657.682 1255.46 655.915 1254.13 653.559C1252.84 651.203 1252.19 648.239 1252.19 644.667C1252.19 641.019 1252.78 637.998 1253.96 635.604C1255.18 633.172 1256.85 631.348 1258.98 630.132C1261.14 628.916 1263.63 628.308 1266.44 628.308ZM1266.61 634.35C1265.25 634.35 1264.11 634.882 1263.19 635.946C1262.28 637.01 1261.75 638.663 1261.6 640.905H1271.57C1271.57 639.651 1271.38 638.53 1271 637.542C1270.62 636.554 1270.07 635.775 1269.35 635.205C1268.63 634.635 1267.72 634.35 1266.61 634.35ZM1307.33 650.766C1307.33 652.856 1306.88 654.642 1305.96 656.124C1305.09 657.568 1303.74 658.67 1301.92 659.43C1300.09 660.19 1297.74 660.57 1294.85 660.57C1292.76 660.57 1290.94 660.418 1289.38 660.114C1287.82 659.848 1286.24 659.392 1284.65 658.746V651.735C1286.39 652.495 1288.2 653.122 1290.06 653.616C1291.92 654.11 1293.48 654.357 1294.74 654.357C1296.1 654.357 1297.07 654.11 1297.64 653.616C1298.25 653.122 1298.55 652.476 1298.55 651.678C1298.55 651.146 1298.4 650.671 1298.1 650.253C1297.79 649.835 1297.19 649.36 1296.27 648.828C1295.36 648.296 1294.01 647.612 1292.23 646.776C1290.48 645.94 1289.04 645.123 1287.9 644.325C1286.79 643.489 1285.96 642.501 1285.39 641.361C1284.86 640.183 1284.59 638.72 1284.59 636.972C1284.59 634.084 1285.67 631.918 1287.84 630.474C1290.04 629.03 1292.93 628.308 1296.5 628.308C1298.4 628.308 1300.19 628.498 1301.86 628.878C1303.53 629.258 1305.26 629.885 1307.05 630.759L1304.48 636.858C1303.49 636.402 1302.53 636.003 1301.58 635.661C1300.63 635.319 1299.71 635.053 1298.84 634.863C1298 634.673 1297.21 634.578 1296.45 634.578C1295.46 634.578 1294.7 634.749 1294.17 635.091C1293.67 635.433 1293.42 635.946 1293.42 636.63C1293.42 637.124 1293.58 637.58 1293.88 637.998C1294.18 638.378 1294.77 638.815 1295.65 639.309C1296.52 639.765 1297.79 640.354 1299.47 641.076C1301.18 641.798 1302.6 642.558 1303.74 643.356C1304.92 644.116 1305.81 645.085 1306.42 646.263C1307.03 647.403 1307.33 648.904 1307.33 650.766ZM1344.37 635.262H1337.75V660H1328.63V635.262H1324.47V631.158L1328.75 628.878V626.598C1328.75 623.938 1329.13 621.886 1329.89 620.442C1330.65 618.96 1331.79 617.915 1333.31 617.307C1334.83 616.699 1336.71 616.395 1338.95 616.395C1340.51 616.395 1341.92 616.528 1343.17 616.794C1344.42 617.06 1345.58 617.364 1346.65 617.706L1344.54 623.919C1343.97 623.729 1343.34 623.558 1342.66 623.406C1342.01 623.216 1341.29 623.121 1340.49 623.121C1339.54 623.121 1338.84 623.482 1338.38 624.204C1337.96 624.926 1337.75 625.838 1337.75 626.94V628.878H1344.37V635.262ZM1376.06 644.382C1376.06 646.966 1375.71 649.265 1375.03 651.279C1374.38 653.293 1373.43 655.003 1372.18 656.409C1370.93 657.777 1369.39 658.822 1367.56 659.544C1365.78 660.228 1363.76 660.57 1361.52 660.57C1359.43 660.57 1357.49 660.228 1355.71 659.544C1353.92 658.822 1352.38 657.777 1351.09 656.409C1349.84 655.003 1348.85 653.293 1348.13 651.279C1347.44 649.265 1347.1 646.966 1347.1 644.382C1347.1 640.924 1347.69 638.017 1348.87 635.661C1350.05 633.267 1351.72 631.443 1353.88 630.189C1356.05 628.935 1358.65 628.308 1361.69 628.308C1364.5 628.308 1366.97 628.935 1369.1 630.189C1371.27 631.443 1372.96 633.267 1374.18 635.661C1375.43 638.017 1376.06 640.924 1376.06 644.382ZM1356.39 644.382C1356.39 646.434 1356.56 648.163 1356.9 649.569C1357.28 650.937 1357.85 651.982 1358.61 652.704C1359.41 653.388 1360.42 653.73 1361.64 653.73C1362.89 653.73 1363.88 653.388 1364.6 652.704C1365.36 651.982 1365.91 650.937 1366.25 649.569C1366.59 648.163 1366.77 646.434 1366.77 644.382C1366.77 642.33 1366.59 640.62 1366.25 639.252C1365.91 637.884 1365.34 636.858 1364.54 636.174C1363.78 635.49 1362.79 635.148 1361.58 635.148C1359.72 635.148 1358.39 635.927 1357.59 637.485C1356.79 639.005 1356.39 641.304 1356.39 644.382ZM1399.36 628.308C1399.85 628.308 1400.39 628.327 1400.96 628.365C1401.53 628.403 1401.96 628.46 1402.27 628.536L1401.53 636.516C1401.22 636.44 1400.82 636.383 1400.33 636.345C1399.84 636.269 1399.27 636.231 1398.62 636.231C1397.78 636.231 1396.93 636.383 1396.05 636.687C1395.22 636.953 1394.44 637.39 1393.72 637.998C1393.03 638.606 1392.46 639.423 1392.01 640.449C1391.59 641.437 1391.38 642.672 1391.38 644.154V660H1382.26V628.878H1389.1L1390.47 634.122H1390.92C1391.49 633.058 1392.2 632.089 1393.03 631.215C1393.87 630.341 1394.82 629.638 1395.88 629.106C1396.99 628.574 1398.14 628.308 1399.36 628.308ZM1434.23 619.302C1439.13 619.302 1442.74 620.442 1445.06 622.722C1447.42 624.964 1448.59 628.061 1448.59 632.013C1448.59 633.799 1448.35 635.509 1447.85 637.143C1447.36 638.739 1446.54 640.183 1445.4 641.475C1444.26 642.729 1442.74 643.717 1440.84 644.439C1438.98 645.161 1436.68 645.522 1433.94 645.522H1430.75V660H1421.52V619.302H1434.23ZM1433.94 626.37H1430.75V638.454H1433.09C1434.31 638.454 1435.39 638.245 1436.34 637.827C1437.29 637.409 1438.03 636.744 1438.56 635.832C1439.09 634.92 1439.36 633.742 1439.36 632.298C1439.36 630.284 1438.9 628.802 1437.99 627.852C1437.12 626.864 1435.77 626.37 1433.94 626.37ZM1467.39 628.308C1470.16 628.308 1472.56 628.859 1474.57 629.961C1476.59 631.063 1478.14 632.659 1479.25 634.749C1480.35 636.839 1480.9 639.404 1480.9 642.444V646.548H1462.37C1462.45 648.942 1463.06 650.823 1464.2 652.191C1465.38 653.559 1467.05 654.243 1469.21 654.243C1471.11 654.243 1472.82 654.053 1474.34 653.673C1475.9 653.255 1477.5 652.628 1479.13 651.792V658.347C1477.73 659.107 1476.19 659.658 1474.52 660C1472.88 660.38 1470.85 660.57 1468.42 660.57C1465.45 660.57 1462.81 660 1460.49 658.86C1458.21 657.682 1456.41 655.915 1455.08 653.559C1453.79 651.203 1453.14 648.239 1453.14 644.667C1453.14 641.019 1453.73 637.998 1454.91 635.604C1456.12 633.172 1457.8 631.348 1459.92 630.132C1462.09 628.916 1464.58 628.308 1467.39 628.308ZM1467.56 634.35C1466.19 634.35 1465.05 634.882 1464.14 635.946C1463.23 637.01 1462.7 638.663 1462.55 640.905H1472.52C1472.52 639.651 1472.33 638.53 1471.95 637.542C1471.57 636.554 1471.02 635.775 1470.3 635.205C1469.58 634.635 1468.66 634.35 1467.56 634.35ZM1504.18 628.308C1504.67 628.308 1505.2 628.327 1505.77 628.365C1506.34 628.403 1506.78 628.46 1507.08 628.536L1506.34 636.516C1506.04 636.44 1505.64 636.383 1505.15 636.345C1504.65 636.269 1504.08 636.231 1503.44 636.231C1502.6 636.231 1501.74 636.383 1500.87 636.687C1500.03 636.953 1499.26 637.39 1498.53 637.998C1497.85 638.606 1497.28 639.423 1496.82 640.449C1496.41 641.437 1496.2 642.672 1496.2 644.154V660H1487.08V628.878H1493.92L1495.28 634.122H1495.74C1496.31 633.058 1497.01 632.089 1497.85 631.215C1498.69 630.341 1499.64 629.638 1500.7 629.106C1501.8 628.574 1502.96 628.308 1504.18 628.308ZM1533 650.766C1533 652.856 1532.54 654.642 1531.63 656.124C1530.75 657.568 1529.4 658.67 1527.58 659.43C1525.76 660.19 1523.4 660.57 1520.51 660.57C1518.42 660.57 1516.6 660.418 1515.04 660.114C1513.48 659.848 1511.91 659.392 1510.31 658.746V651.735C1512.06 652.495 1513.86 653.122 1515.72 653.616C1517.59 654.11 1519.14 654.357 1520.4 654.357C1521.77 654.357 1522.74 654.11 1523.31 653.616C1523.91 653.122 1524.22 652.476 1524.22 651.678C1524.22 651.146 1524.07 650.671 1523.76 650.253C1523.46 649.835 1522.85 649.36 1521.94 648.828C1521.03 648.296 1519.68 647.612 1517.89 646.776C1516.14 645.94 1514.7 645.123 1513.56 644.325C1512.46 643.489 1511.62 642.501 1511.05 641.361C1510.52 640.183 1510.25 638.72 1510.25 636.972C1510.25 634.084 1511.34 631.918 1513.5 630.474C1515.71 629.03 1518.59 628.308 1522.17 628.308C1524.07 628.308 1525.85 628.498 1527.52 628.878C1529.2 629.258 1530.92 629.885 1532.71 630.759L1530.15 636.858C1529.16 636.402 1528.19 636.003 1527.24 635.661C1526.29 635.319 1525.38 635.053 1524.5 634.863C1523.67 634.673 1522.87 634.578 1522.11 634.578C1521.12 634.578 1520.36 634.749 1519.83 635.091C1519.33 635.433 1519.09 635.946 1519.09 636.63C1519.09 637.124 1519.24 637.58 1519.54 637.998C1519.85 638.378 1520.44 638.815 1521.31 639.309C1522.18 639.765 1523.46 640.354 1525.13 641.076C1526.84 641.798 1528.26 642.558 1529.4 643.356C1530.58 644.116 1531.48 645.085 1532.08 646.263C1532.69 647.403 1533 648.904 1533 650.766ZM1566.37 644.382C1566.37 646.966 1566.03 649.265 1565.35 651.279C1564.7 653.293 1563.75 655.003 1562.5 656.409C1561.24 657.777 1559.7 658.822 1557.88 659.544C1556.09 660.228 1554.08 660.57 1551.84 660.57C1549.75 660.57 1547.81 660.228 1546.02 659.544C1544.24 658.822 1542.7 657.777 1541.41 656.409C1540.15 655.003 1539.16 653.293 1538.44 651.279C1537.76 649.265 1537.42 646.966 1537.42 644.382C1537.42 640.924 1538.01 638.017 1539.18 635.661C1540.36 633.267 1542.03 631.443 1544.2 630.189C1546.37 628.935 1548.97 628.308 1552.01 628.308C1554.82 628.308 1557.29 628.935 1559.42 630.189C1561.58 631.443 1563.28 633.267 1564.49 635.661C1565.75 638.017 1566.37 640.924 1566.37 644.382ZM1546.71 644.382C1546.71 646.434 1546.88 648.163 1547.22 649.569C1547.6 650.937 1548.17 651.982 1548.93 652.704C1549.73 653.388 1550.74 653.73 1551.95 653.73C1553.21 653.73 1554.19 653.388 1554.92 652.704C1555.68 651.982 1556.23 650.937 1556.57 649.569C1556.91 648.163 1557.08 646.434 1557.08 644.382C1557.08 642.33 1556.91 640.62 1556.57 639.252C1556.23 637.884 1555.66 636.858 1554.86 636.174C1554.1 635.49 1553.11 635.148 1551.89 635.148C1550.03 635.148 1548.7 635.927 1547.9 637.485C1547.11 639.005 1546.71 641.304 1546.71 644.382ZM1590.13 628.308C1593.25 628.308 1595.76 629.22 1597.66 631.044C1599.59 632.83 1600.56 635.718 1600.56 639.708V660H1591.44V641.817C1591.44 639.575 1591.1 637.903 1590.42 636.801C1589.77 635.661 1588.73 635.091 1587.28 635.091C1585.08 635.091 1583.6 635.984 1582.84 637.77C1582.08 639.518 1581.7 642.045 1581.7 645.351V660H1572.58V628.878H1579.47L1580.73 632.868H1581.13C1581.77 631.804 1582.53 630.949 1583.41 630.303C1584.32 629.619 1585.34 629.125 1586.48 628.821C1587.62 628.479 1588.84 628.308 1590.13 628.308ZM1629.35 650.766C1629.35 652.856 1628.89 654.642 1627.98 656.124C1627.11 657.568 1625.76 658.67 1623.93 659.43C1622.11 660.19 1619.75 660.57 1616.87 660.57C1614.78 660.57 1612.95 660.418 1611.39 660.114C1609.84 659.848 1608.26 659.392 1606.66 658.746V651.735C1608.41 652.495 1610.22 653.122 1612.08 653.616C1613.94 654.11 1615.5 654.357 1616.75 654.357C1618.12 654.357 1619.09 654.11 1619.66 653.616C1620.27 653.122 1620.57 652.476 1620.57 651.678C1620.57 651.146 1620.42 650.671 1620.12 650.253C1619.81 649.835 1619.2 649.36 1618.29 648.828C1617.38 648.296 1616.03 647.612 1614.24 646.776C1612.5 645.94 1611.05 645.123 1609.91 644.325C1608.81 643.489 1607.97 642.501 1607.4 641.361C1606.87 640.183 1606.61 638.72 1606.61 636.972C1606.61 634.084 1607.69 631.918 1609.86 630.474C1612.06 629.03 1614.95 628.308 1618.52 628.308C1620.42 628.308 1622.21 628.498 1623.88 628.878C1625.55 629.258 1627.28 629.885 1629.06 630.759L1626.5 636.858C1625.51 636.402 1624.54 636.003 1623.59 635.661C1622.64 635.319 1621.73 635.053 1620.86 634.863C1620.02 634.673 1619.22 634.578 1618.46 634.578C1617.47 634.578 1616.71 634.749 1616.18 635.091C1615.69 635.433 1615.44 635.946 1615.44 636.63C1615.44 637.124 1615.59 637.58 1615.9 637.998C1616.2 638.378 1616.79 638.815 1617.66 639.309C1618.54 639.765 1619.81 640.354 1621.48 641.076C1623.19 641.798 1624.62 642.558 1625.76 643.356C1626.94 644.116 1627.83 645.085 1628.44 646.263C1629.05 647.403 1629.35 648.904 1629.35 650.766ZM1670.43 643.584C1670.32 642.938 1670.18 642.292 1670.03 641.646C1669.92 640.962 1669.78 640.297 1669.63 639.651C1669.52 639.005 1669.42 638.378 1669.35 637.77C1669.27 637.124 1669.19 636.516 1669.12 635.946H1668.95C1668.91 636.516 1668.83 637.124 1668.72 637.77C1668.64 638.416 1668.55 639.081 1668.43 639.765C1668.32 640.411 1668.19 641.076 1668.04 641.76C1667.92 642.444 1667.79 643.128 1667.64 643.812L1664.05 660H1653.39L1645.92 628.878H1654.81L1657.78 644.781C1657.97 645.731 1658.14 646.7 1658.29 647.688C1658.44 648.638 1658.57 649.569 1658.69 650.481C1658.84 651.355 1658.93 652.153 1658.97 652.875H1659.2C1659.28 652.343 1659.37 651.697 1659.49 650.937C1659.6 650.177 1659.71 649.417 1659.83 648.657C1659.98 647.859 1660.11 647.137 1660.23 646.491C1660.34 645.845 1660.44 645.37 1660.51 645.066L1664.1 628.878H1674.02L1677.5 645.009C1677.61 645.541 1677.74 646.301 1677.9 647.289C1678.05 648.239 1678.18 649.227 1678.3 650.253C1678.45 651.279 1678.54 652.153 1678.58 652.875H1678.75C1678.83 652.153 1678.92 651.355 1679.04 650.481C1679.19 649.607 1679.34 648.676 1679.49 647.688C1679.68 646.7 1679.87 645.731 1680.06 644.781L1683.37 628.878H1692.03L1684.34 660H1673.74L1670.43 643.584ZM1705.6 628.878V660H1696.48V628.878H1705.6ZM1701.1 616.68C1702.43 616.68 1703.57 616.984 1704.52 617.592C1705.47 618.162 1705.95 619.245 1705.95 620.841C1705.95 622.399 1705.47 623.482 1704.52 624.09C1703.57 624.698 1702.43 625.002 1701.1 625.002C1699.73 625.002 1698.57 624.698 1697.62 624.09C1696.67 623.482 1696.2 622.399 1696.2 620.841C1696.2 619.245 1696.67 618.162 1697.62 617.592C1698.57 616.984 1699.73 616.68 1701.1 616.68ZM1726.75 653.787C1727.66 653.787 1728.49 653.692 1729.25 653.502C1730.05 653.312 1730.87 653.084 1731.7 652.818V659.145C1730.75 659.525 1729.63 659.848 1728.34 660.114C1727.09 660.418 1725.61 660.57 1723.9 660.57C1722.07 660.57 1720.44 660.266 1718.99 659.658C1717.59 659.05 1716.49 658.005 1715.69 656.523C1714.89 655.003 1714.49 652.913 1714.49 650.253V635.262H1710.79V631.671L1715.23 628.821L1717.74 622.266H1723.61V628.878H1731.36V635.262H1723.61V650.253C1723.61 651.431 1723.9 652.324 1724.47 652.932C1725.04 653.502 1725.8 653.787 1726.75 653.787ZM1746.41 625.515C1746.41 627.035 1746.35 628.498 1746.24 629.904C1746.16 631.31 1746.08 632.298 1746.01 632.868H1746.46C1747.11 631.804 1747.83 630.949 1748.63 630.303C1749.47 629.619 1750.4 629.125 1751.42 628.821C1752.45 628.479 1753.55 628.308 1754.73 628.308C1756.78 628.308 1758.59 628.707 1760.14 629.505C1761.74 630.303 1762.99 631.538 1763.91 633.21C1764.82 634.882 1765.27 637.048 1765.27 639.708V660H1756.1V641.817C1756.1 639.575 1755.75 637.903 1755.07 636.801C1754.42 635.661 1753.4 635.091 1751.99 635.091C1750.59 635.091 1749.47 635.49 1748.63 636.288C1747.79 637.086 1747.2 638.245 1746.86 639.765C1746.56 641.285 1746.41 643.147 1746.41 645.351V660H1737.29V616.68H1746.41V625.515ZM1819.49 639.252C1819.49 643.812 1818.65 647.631 1816.98 650.709C1815.35 653.787 1812.99 656.105 1809.91 657.663C1806.87 659.221 1803.23 660 1798.97 660H1787.4V619.302H1800C1804.06 619.302 1807.54 620.062 1810.43 621.582C1813.35 623.102 1815.59 625.344 1817.15 628.308C1818.71 631.234 1819.49 634.882 1819.49 639.252ZM1809.91 639.48C1809.91 636.478 1809.55 634.008 1808.83 632.07C1808.11 630.132 1807.03 628.707 1805.58 627.795C1804.18 626.845 1802.41 626.37 1800.28 626.37H1796.63V652.875H1799.48C1803.05 652.875 1805.68 651.754 1807.35 649.512C1809.06 647.27 1809.91 643.926 1809.91 639.48ZM1835.41 628.878V660H1826.29V628.878H1835.41ZM1830.91 616.68C1832.24 616.68 1833.38 616.984 1834.33 617.592C1835.28 618.162 1835.75 619.245 1835.75 620.841C1835.75 622.399 1835.28 623.482 1834.33 624.09C1833.38 624.698 1832.24 625.002 1830.91 625.002C1829.54 625.002 1828.38 624.698 1827.43 624.09C1826.48 623.482 1826.01 622.399 1826.01 620.841C1826.01 619.245 1826.48 618.162 1827.43 617.592C1828.38 616.984 1829.54 616.68 1830.91 616.68ZM1864.36 650.766C1864.36 652.856 1863.91 654.642 1863 656.124C1862.12 657.568 1860.77 658.67 1858.95 659.43C1857.12 660.19 1854.77 660.57 1851.88 660.57C1849.79 660.57 1847.97 660.418 1846.41 660.114C1844.85 659.848 1843.27 659.392 1841.68 658.746V651.735C1843.43 652.495 1845.23 653.122 1847.09 653.616C1848.95 654.11 1850.51 654.357 1851.77 654.357C1853.13 654.357 1854.1 654.11 1854.67 653.616C1855.28 653.122 1855.59 652.476 1855.59 651.678C1855.59 651.146 1855.43 650.671 1855.13 650.253C1854.83 649.835 1854.22 649.36 1853.31 648.828C1852.39 648.296 1851.04 647.612 1849.26 646.776C1847.51 645.94 1846.07 645.123 1844.93 644.325C1843.82 643.489 1842.99 642.501 1842.42 641.361C1841.89 640.183 1841.62 638.72 1841.62 636.972C1841.62 634.084 1842.7 631.918 1844.87 630.474C1847.07 629.03 1849.96 628.308 1853.53 628.308C1855.43 628.308 1857.22 628.498 1858.89 628.878C1860.56 629.258 1862.29 629.885 1864.08 630.759L1861.51 636.858C1860.53 636.402 1859.56 636.003 1858.61 635.661C1857.66 635.319 1856.74 635.053 1855.87 634.863C1855.03 634.673 1854.24 634.578 1853.48 634.578C1852.49 634.578 1851.73 634.749 1851.2 635.091C1850.7 635.433 1850.46 635.946 1850.46 636.63C1850.46 637.124 1850.61 637.58 1850.91 637.998C1851.22 638.378 1851.8 638.815 1852.68 639.309C1853.55 639.765 1854.83 640.354 1856.5 641.076C1858.21 641.798 1859.63 642.558 1860.77 643.356C1861.95 644.116 1862.84 645.085 1863.45 646.263C1864.06 647.403 1864.36 648.904 1864.36 650.766ZM1883.55 628.251C1887.39 628.251 1890.35 629.163 1892.44 630.987C1894.57 632.773 1895.63 635.528 1895.63 639.252V660H1889.3L1887.54 655.782H1887.31C1886.47 656.884 1885.62 657.796 1884.74 658.518C1883.87 659.24 1882.86 659.753 1881.72 660.057C1880.58 660.399 1879.2 660.57 1877.56 660.57C1875.85 660.57 1874.31 660.228 1872.95 659.544C1871.62 658.822 1870.55 657.739 1869.75 656.295C1868.96 654.813 1868.56 652.951 1868.56 650.709C1868.56 647.403 1869.64 644.971 1871.81 643.413C1874.01 641.817 1877.24 640.943 1881.5 640.791L1886.51 640.62V639.252C1886.51 637.618 1886.15 636.421 1885.43 635.661C1884.71 634.901 1883.72 634.521 1882.46 634.521C1881.17 634.521 1879.82 634.749 1878.42 635.205C1877.01 635.623 1875.61 636.155 1874.2 636.801L1871.41 631.044C1873.08 630.17 1874.92 629.486 1876.94 628.992C1878.99 628.498 1881.19 628.251 1883.55 628.251ZM1883.89 645.693C1881.65 645.769 1880.07 646.263 1879.16 647.175C1878.28 648.087 1877.85 649.284 1877.85 650.766C1877.85 652.058 1878.15 652.989 1878.76 653.559C1879.41 654.091 1880.24 654.357 1881.27 654.357C1882.71 654.357 1883.95 653.825 1884.97 652.761C1886.04 651.659 1886.57 650.12 1886.57 648.144V645.579L1883.89 645.693ZM1912.34 626.769C1912.34 627.947 1912.3 629.106 1912.23 630.246C1912.15 631.386 1912.07 632.279 1912 632.925H1912.34C1913.1 631.633 1914.11 630.55 1915.36 629.676C1916.65 628.764 1918.34 628.308 1920.43 628.308C1923.59 628.308 1926.17 629.676 1928.19 632.412C1930.2 635.11 1931.21 639.1 1931.21 644.382C1931.21 647.916 1930.73 650.899 1929.78 653.331C1928.87 655.725 1927.58 657.53 1925.91 658.746C1924.27 659.962 1922.35 660.57 1920.15 660.57C1918.06 660.57 1916.43 660.171 1915.25 659.373C1914.07 658.537 1913.1 657.606 1912.34 656.58H1911.71L1910.29 660H1903.22V616.68H1912.34V626.769ZM1917.24 635.091C1916.1 635.091 1915.17 635.395 1914.45 636.003C1913.73 636.611 1913.2 637.542 1912.85 638.796C1912.51 640.012 1912.34 641.551 1912.34 643.413V644.325C1912.34 647.327 1912.7 649.645 1913.42 651.279C1914.15 652.875 1915.46 653.673 1917.36 653.673C1918.8 653.673 1919.92 652.875 1920.72 651.279C1921.52 649.645 1921.92 647.308 1921.92 644.268C1921.92 641.228 1921.52 638.948 1920.72 637.428C1919.92 635.87 1918.76 635.091 1917.24 635.091ZM1946.52 628.878V660H1937.4V628.878H1946.52ZM1942.02 616.68C1943.35 616.68 1944.49 616.984 1945.44 617.592C1946.39 618.162 1946.86 619.245 1946.86 620.841C1946.86 622.399 1946.39 623.482 1945.44 624.09C1944.49 624.698 1943.35 625.002 1942.02 625.002C1940.65 625.002 1939.49 624.698 1938.54 624.09C1937.59 623.482 1937.11 622.399 1937.11 620.841C1937.11 619.245 1937.59 618.162 1938.54 617.592C1939.49 616.984 1940.65 616.68 1942.02 616.68ZM1963.38 660H1954.26V616.68H1963.38V660ZM1980.25 628.878V660H1971.13V628.878H1980.25ZM1975.75 616.68C1977.08 616.68 1978.22 616.984 1979.17 617.592C1980.12 618.162 1980.59 619.245 1980.59 620.841C1980.59 622.399 1980.12 623.482 1979.17 624.09C1978.22 624.698 1977.08 625.002 1975.75 625.002C1974.38 625.002 1973.22 624.698 1972.27 624.09C1971.32 623.482 1970.85 622.399 1970.85 620.841C1970.85 619.245 1971.32 618.162 1972.27 617.592C1973.22 616.984 1974.38 616.68 1975.75 616.68ZM2001.39 653.787C2002.3 653.787 2003.14 653.692 2003.9 653.502C2004.7 653.312 2005.52 653.084 2006.35 652.818V659.145C2005.4 659.525 2004.28 659.848 2002.99 660.114C2001.73 660.418 2000.25 660.57 1998.54 660.57C1996.72 660.57 1995.08 660.266 1993.64 659.658C1992.23 659.05 1991.13 658.005 1990.33 656.523C1989.54 655.003 1989.14 652.913 1989.14 650.253V635.262H1985.43V631.671L1989.88 628.821L1992.39 622.266H1998.26V628.878H2006.01V635.262H1998.26V650.253C1998.26 651.431 1998.54 652.324 1999.11 652.932C1999.68 653.502 2000.44 653.787 2001.39 653.787ZM2021.05 628.878V660H2011.93V628.878H2021.05ZM2016.55 616.68C2017.88 616.68 2019.02 616.984 2019.97 617.592C2020.92 618.162 2021.39 619.245 2021.39 620.841C2021.39 622.399 2020.92 623.482 2019.97 624.09C2019.02 624.698 2017.88 625.002 2016.55 625.002C2015.18 625.002 2014.02 624.698 2013.07 624.09C2012.12 623.482 2011.65 622.399 2011.65 620.841C2011.65 619.245 2012.12 618.162 2013.07 617.592C2014.02 616.984 2015.18 616.68 2016.55 616.68ZM2041.51 628.308C2044.28 628.308 2046.68 628.859 2048.69 629.961C2050.71 631.063 2052.26 632.659 2053.37 634.749C2054.47 636.839 2055.02 639.404 2055.02 642.444V646.548H2036.49C2036.57 648.942 2037.18 650.823 2038.32 652.191C2039.5 653.559 2041.17 654.243 2043.33 654.243C2045.23 654.243 2046.94 654.053 2048.46 653.673C2050.02 653.255 2051.62 652.628 2053.25 651.792V658.347C2051.85 659.107 2050.31 659.658 2048.63 660C2047 660.38 2044.97 660.57 2042.54 660.57C2039.57 660.57 2036.93 660 2034.61 658.86C2032.33 657.682 2030.53 655.915 2029.2 653.559C2027.91 651.203 2027.26 648.239 2027.26 644.667C2027.26 641.019 2027.85 637.998 2029.03 635.604C2030.24 633.172 2031.91 631.348 2034.04 630.132C2036.21 628.916 2038.7 628.308 2041.51 628.308ZM2041.68 634.35C2040.31 634.35 2039.17 634.882 2038.26 635.946C2037.35 637.01 2036.82 638.663 2036.66 640.905H2046.64C2046.64 639.651 2046.45 638.53 2046.07 637.542C2045.69 636.554 2045.14 635.775 2044.42 635.205C2043.69 634.635 2042.78 634.35 2041.68 634.35ZM2082.4 650.766C2082.4 652.856 2081.94 654.642 2081.03 656.124C2080.16 657.568 2078.81 658.67 2076.98 659.43C2075.16 660.19 2072.8 660.57 2069.92 660.57C2067.83 660.57 2066 660.418 2064.44 660.114C2062.89 659.848 2061.31 659.392 2059.71 658.746V651.735C2061.46 652.495 2063.27 653.122 2065.13 653.616C2066.99 654.11 2068.55 654.357 2069.8 654.357C2071.17 654.357 2072.14 654.11 2072.71 653.616C2073.32 653.122 2073.62 652.476 2073.62 651.678C2073.62 651.146 2073.47 650.671 2073.17 650.253C2072.86 649.835 2072.25 649.36 2071.34 648.828C2070.43 648.296 2069.08 647.612 2067.29 646.776C2065.55 645.94 2064.1 645.123 2062.96 644.325C2061.86 643.489 2061.02 642.501 2060.45 641.361C2059.92 640.183 2059.66 638.72 2059.66 636.972C2059.66 634.084 2060.74 631.918 2062.91 630.474C2065.11 629.03 2068 628.308 2071.57 628.308C2073.47 628.308 2075.26 628.498 2076.93 628.878C2078.6 629.258 2080.33 629.885 2082.11 630.759L2079.55 636.858C2078.56 636.402 2077.59 636.003 2076.64 635.661C2075.69 635.319 2074.78 635.053 2073.91 634.863C2073.07 634.673 2072.27 634.578 2071.51 634.578C2070.52 634.578 2069.76 634.749 2069.23 635.091C2068.74 635.433 2068.49 635.946 2068.49 636.63C2068.49 637.124 2068.64 637.58 2068.95 637.998C2069.25 638.378 2069.84 638.815 2070.71 639.309C2071.59 639.765 2072.86 640.354 2074.53 641.076C2076.24 641.798 2077.67 642.558 2078.81 643.356C2079.99 644.116 2080.88 645.085 2081.49 646.263C2082.1 647.403 2082.4 648.904 2082.4 650.766Z" fill="#454545"/>
<defs>
<linearGradient id="paint0_linear_11_136" x1="1612" y1="482.462" x2="1374.73" y2="335.988" gradientUnits="userSpaceOnUse">
<stop offset="0.595319" stop-color="#3D9358"/>
<stop offset="1" stop-color="#036C6A"/>
</linearGradient>
</defs>
</svg>
