<svg width="4364" height="688" viewBox="0 0 4364 688" fill="none" xmlns="http://www.w3.org/2000/svg">
<path d="M196 240.163C196 230.489 200.004 221.246 207.062 214.629L412.062 22.4418C425.525 9.82023 446.475 9.82022 459.938 22.4418L664.938 214.629C671.996 221.246 676 230.489 676 240.163V300V565C676 584.33 660.33 600 641 600H231C211.67 600 196 584.33 196 565V300V240.163Z" fill="#FFC641"/>
<rect x="486" y="290" width="70" height="70" rx="15" fill="white"/>
<rect x="566" y="360" width="70" height="70" rx="15" fill="white"/>
<path d="M240.319 397.783C251.724 387.925 266.296 382.5 281.371 382.5H427.564C452.105 382.5 472 402.395 472 426.936V503.089C472 587.983 412.2 661.127 329 678C295.187 681.498 263.537 660.858 253.105 628.504L236.569 577.227C231.316 560.934 242.043 543.848 259 541.5L270 540.5L280 539L286 537.5L291 536L296.5 534L300 532.5L309 528L324 520.5L293.5 523.5H286.812C282.943 523.5 279.08 523.2 275.258 522.603L274.439 522.475C268.176 521.496 262.079 519.658 256.318 517.011C249.813 514.022 243.813 510.037 238.535 505.199L236.57 503.398C231.241 498.513 226.912 492.638 223.825 486.1C221.291 480.734 219.63 474.999 218.904 469.109L217.71 459.427C216.259 447.659 217.745 435.715 222.035 424.661L222.848 422.564C226.559 413.001 232.558 404.492 240.319 397.783Z" fill="#9CC813"/>
<path d="M0 415.046C0 277.542 111.045 165.85 248.547 165.05L257.218 165L289.682 166.496L323.462 172.898C327.242 173.615 330.965 174.603 334.602 175.855L358.107 183.945L380.33 192.896C384.487 194.571 388.495 196.591 392.314 198.937L396.294 201.382C402.768 205.359 408.643 210.238 413.741 215.872L420.039 222.833L423.747 228.287C427.577 233.922 430.484 240.131 432.359 246.681C433.797 251.703 434.615 256.883 434.795 262.103L434.965 267.024C435.317 277.213 433.394 287.353 429.336 296.705C425.812 304.825 420.75 312.186 414.429 318.383L411.653 321.105C403.053 329.537 392.285 335.421 380.543 338.105C373.624 339.687 366.492 340.128 359.43 339.412L351.531 338.61C344.343 337.88 337.392 335.634 331.137 332.019L315.503 324.042C310.952 321.72 306.19 319.84 301.281 318.427L289.237 314.958C284.88 313.704 280.425 312.822 275.919 312.322L268.231 311.469C262.9 310.878 257.524 310.825 252.182 311.309L243.068 312.136C236.214 312.758 229.47 314.262 223.001 316.61L217.047 318.771C209.246 321.603 201.934 325.631 195.372 330.711L187.362 336.912C183 340.288 178.999 344.106 175.423 348.306L172.078 352.234C166.608 358.659 162.188 365.909 158.983 373.716L153.736 386.495C152.139 390.385 150.93 394.424 150.127 398.552L149.829 400.088C146.527 417.074 146.093 434.494 148.544 451.623C149.071 455.305 149.938 458.93 151.134 462.452L153.544 469.548C157.351 480.758 163.598 490.984 171.836 499.487L187.808 515.974C197.859 526.349 210.953 533.254 225.191 535.688L247.121 539.436C266.011 542.665 285.438 539.78 302.574 531.202L324 520.475L341.185 518.086C346.377 517.365 351.636 517.251 356.854 517.748C375.152 519.49 391.945 528.63 403.343 543.05L407.791 548.678C409.926 551.379 411.825 554.26 413.466 557.287C417.121 564.033 419.448 571.418 420.319 579.041L420.339 579.22C420.779 583.065 420.851 586.942 420.554 590.801L420.055 597.283C419.357 606.357 417.069 615.237 413.295 623.519C405.377 640.894 391.333 654.742 373.848 662.414L357.823 669.445C353.947 671.146 349.942 672.536 345.846 673.603L318.136 680.822C301.12 685.255 283.593 687.424 266.009 687.274L247.863 687.118C110.631 685.946 0 574.365 0 437.128L0 425.747L0 415.046Z" fill="url(#paint0_linear_11_151)"/>
<path d="M966.8 208.9H1006.7V416.5H966.8V208.9ZM995.6 293.5H1043.6V326.5H995.6V293.5ZM788.3 238H951.5V269.2H788.3V238ZM869.9 279.1C883.3 279.1 895.1 281.4 905.3 286C915.7 290.4 923.8 296.7 929.6 304.9C935.4 312.9 938.3 322.1 938.3 332.5C938.3 343.1 935.4 352.5 929.6 360.7C923.8 368.7 915.7 375 905.3 379.6C895.1 384 883.3 386.2 869.9 386.2C856.7 386.2 844.9 384 834.5 379.6C824.1 375 816 368.7 810.2 360.7C804.4 352.5 801.5 343.1 801.5 332.5C801.5 322.1 804.4 312.9 810.2 304.9C816 296.7 824.1 290.4 834.5 286C844.9 281.4 856.7 279.1 869.9 279.1ZM869.9 309.4C861.1 309.4 853.9 311.4 848.3 315.4C842.7 319.4 839.9 325.2 839.9 332.8C839.9 340.2 842.7 345.9 848.3 349.9C853.9 353.9 861.1 355.9 869.9 355.9C878.9 355.9 886.1 353.9 891.5 349.9C897.1 345.9 899.9 340.2 899.9 332.8C899.9 325.2 897.1 319.4 891.5 315.4C886.1 311.4 878.9 309.4 869.9 309.4ZM850.1 208.6H889.7V253H850.1V208.6ZM827.6 449.8H1016.6V481.9H827.6V449.8ZM827.6 400.9H867.8V463.6H827.6V400.9ZM1095.18 220.6H1270.98V252.4H1095.18V220.6ZM1064.28 316.3H1315.98V348.4H1064.28V316.3ZM1169.88 338.8H1209.48V397H1169.88V338.8ZM1246.98 220.6H1286.28V242.8C1286.28 254.8 1285.88 268 1285.08 282.4C1284.48 296.6 1281.98 312.8 1277.58 331L1238.58 327.4C1242.78 309.4 1245.18 293.8 1245.78 280.6C1246.58 267.2 1246.98 254.6 1246.98 242.8V220.6ZM1089.48 387.4H1286.88V486.7H1246.98V418.9H1089.48V387.4ZM1402.05 239.8H1434.75V257.2C1434.75 274.8 1431.85 291.5 1426.05 307.3C1420.45 323.1 1411.85 337 1400.25 349C1388.65 360.8 1373.95 369.6 1356.15 375.4L1336.35 343.9C1351.55 338.9 1363.95 331.9 1373.55 322.9C1383.35 313.7 1390.55 303.4 1395.15 292C1399.75 280.4 1402.05 268.8 1402.05 257.2V239.8ZM1410.15 239.8H1442.25V257.2C1442.25 268 1444.45 278.5 1448.85 288.7C1453.25 298.7 1460.05 307.7 1469.25 315.7C1478.65 323.7 1490.85 330 1505.85 334.6L1486.65 365.8C1469.05 360.6 1454.55 352.6 1443.15 341.8C1431.95 330.8 1423.65 318.1 1418.25 303.7C1412.85 289.1 1410.15 273.6 1410.15 257.2V239.8ZM1346.55 227.2H1496.85V259H1346.55V227.2ZM1518.75 208.9H1558.65V373.6H1518.75V208.9ZM1547.85 272.5H1595.55V305.2H1547.85V272.5ZM1468.05 378.4C1487.45 378.4 1504.15 380.6 1518.15 385C1532.15 389.2 1542.95 395.3 1550.55 403.3C1558.15 411.3 1561.95 421 1561.95 432.4C1561.95 443.8 1558.15 453.5 1550.55 461.5C1542.95 469.7 1532.15 475.9 1518.15 480.1C1504.15 484.5 1487.45 486.7 1468.05 486.7C1448.85 486.7 1432.15 484.5 1417.95 480.1C1403.95 475.9 1393.05 469.7 1385.25 461.5C1377.65 453.5 1373.85 443.8 1373.85 432.4C1373.85 421 1377.65 411.3 1385.25 403.3C1393.05 395.3 1403.95 389.2 1417.95 385C1432.15 380.6 1448.85 378.4 1468.05 378.4ZM1468.05 409.6C1456.25 409.6 1446.35 410.4 1438.35 412C1430.35 413.6 1424.25 416.1 1420.05 419.5C1415.85 422.9 1413.75 427.2 1413.75 432.4C1413.75 437.8 1415.85 442.2 1420.05 445.6C1424.25 449 1430.35 451.6 1438.35 453.4C1446.35 455 1456.25 455.8 1468.05 455.8C1479.85 455.8 1489.75 455 1497.75 453.4C1505.95 451.6 1512.05 449 1516.05 445.6C1520.25 442.2 1522.35 437.8 1522.35 432.4C1522.35 427.2 1520.25 422.9 1516.05 419.5C1512.05 416.1 1505.95 413.6 1497.75 412C1489.75 410.4 1479.85 409.6 1468.05 409.6ZM1678.63 228.1C1690.83 228.1 1701.43 232.2 1710.43 240.4C1719.63 248.4 1726.63 260 1731.43 275.2C1736.43 290.2 1738.93 308.2 1738.93 329.2C1738.93 350 1736.43 368 1731.43 383.2C1726.63 398.4 1719.63 410.1 1710.43 418.3C1701.43 426.3 1690.73 430.3 1678.33 430.3C1666.33 430.3 1655.73 426.3 1646.53 418.3C1637.53 410.1 1630.53 398.4 1625.53 383.2C1620.73 368 1618.33 350 1618.33 329.2C1618.33 308.2 1620.73 290.2 1625.53 275.2C1630.53 260 1637.53 248.4 1646.53 240.4C1655.73 232.2 1666.43 228.1 1678.63 228.1ZM1678.63 265.9C1673.63 265.9 1669.33 268.2 1665.73 272.8C1662.13 277.4 1659.43 284.4 1657.63 293.8C1655.83 303 1654.93 314.8 1654.93 329.2C1654.93 343.2 1655.83 354.9 1657.63 364.3C1659.43 373.7 1662.13 380.8 1665.73 385.6C1669.33 390.2 1673.63 392.5 1678.63 392.5C1683.63 392.5 1687.93 390.2 1691.53 385.6C1695.13 380.8 1697.83 373.7 1699.63 364.3C1701.43 354.9 1702.33 343.2 1702.33 329.2C1702.33 314.8 1701.43 303 1699.63 293.8C1697.83 284.4 1695.13 277.4 1691.53 272.8C1687.93 268.2 1683.63 265.9 1678.63 265.9ZM1816.63 208.6H1854.73V486.4H1816.63V208.6ZM1783.33 314.8H1829.53V346.6H1783.33V314.8ZM1756.03 213.1H1793.23V474.1H1756.03V213.1ZM2083.01 208.9H2122.91V408.4H2083.01V208.9ZM1937.81 449.8H2130.11V481.9H1937.81V449.8ZM1937.81 388.6H1977.71V463H1937.81V388.6ZM1971.71 226.6C1985.91 226.6 1998.71 229.6 2010.11 235.6C2021.51 241.6 2030.51 249.9 2037.11 260.5C2043.91 271.1 2047.31 283.3 2047.31 297.1C2047.31 310.5 2043.91 322.6 2037.11 333.4C2030.51 344 2021.51 352.4 2010.11 358.6C1998.71 364.6 1985.91 367.6 1971.71 367.6C1957.51 367.6 1944.71 364.6 1933.31 358.6C1921.91 352.4 1912.81 344 1906.01 333.4C1899.41 322.6 1896.11 310.5 1896.11 297.1C1896.11 283.3 1899.41 271.1 1906.01 260.5C1912.81 249.9 1921.91 241.6 1933.31 235.6C1944.71 229.6 1957.51 226.6 1971.71 226.6ZM1971.71 260.8C1964.91 260.8 1958.71 262.3 1953.11 265.3C1947.51 268.1 1943.11 272.2 1939.91 277.6C1936.71 282.8 1935.11 289.3 1935.11 297.1C1935.11 304.5 1936.71 310.9 1939.91 316.3C1943.11 321.5 1947.51 325.6 1953.11 328.6C1958.71 331.4 1964.91 332.8 1971.71 332.8C1978.51 332.8 1984.71 331.4 1990.31 328.6C1995.91 325.6 2000.31 321.5 2003.51 316.3C2006.71 310.9 2008.31 304.5 2008.31 297.1C2008.31 289.3 2006.71 282.8 2003.51 277.6C2000.31 272.2 1995.91 268.1 1990.31 265.3C1984.71 262.3 1978.51 260.8 1971.71 260.8ZM2292.08 381.7C2312.08 381.7 2329.48 383.8 2344.28 388C2359.08 392.2 2370.48 398.2 2378.48 406C2386.68 413.8 2390.78 423.2 2390.78 434.2C2390.78 445 2386.68 454.3 2378.48 462.1C2370.48 470.1 2359.08 476.2 2344.28 480.4C2329.48 484.6 2312.08 486.7 2292.08 486.7C2272.28 486.7 2254.98 484.6 2240.18 480.4C2225.38 476.2 2213.88 470.1 2205.68 462.1C2197.68 454.3 2193.68 445 2193.68 434.2C2193.68 423.2 2197.68 413.8 2205.68 406C2213.88 398.2 2225.38 392.2 2240.18 388C2254.98 383.8 2272.28 381.7 2292.08 381.7ZM2292.08 411.7C2279.68 411.7 2269.08 412.5 2260.28 414.1C2251.48 415.7 2244.78 418.2 2240.18 421.6C2235.78 425 2233.58 429.2 2233.58 434.2C2233.58 439.2 2235.78 443.4 2240.18 446.8C2244.78 450 2251.48 452.5 2260.28 454.3C2269.08 455.9 2279.68 456.7 2292.08 456.7C2304.68 456.7 2315.38 455.9 2324.18 454.3C2332.98 452.5 2339.68 450 2344.28 446.8C2348.88 443.4 2351.18 439.2 2351.18 434.2C2351.18 429.2 2348.88 425 2344.28 421.6C2339.68 418.2 2332.98 415.7 2324.18 414.1C2315.38 412.5 2304.68 411.7 2292.08 411.7ZM2196.68 221.2H2372.78V252.4H2196.68V221.2ZM2168.78 332.8H2418.68V364.3H2168.78V332.8ZM2261.18 284.2H2301.08V340.6H2261.18V284.2ZM2349.38 221.2H2389.28V244C2389.28 255 2388.98 266.5 2388.38 278.5C2387.78 290.5 2385.48 303.7 2381.48 318.1L2341.88 314.2C2345.68 300 2347.88 287.4 2348.48 276.4C2349.08 265.4 2349.38 254.6 2349.38 244V221.2ZM2444.46 339.4H2695.56V370.9H2444.46V339.4ZM2550.06 297.7H2589.96V351.7H2550.06V297.7ZM2474.76 285.1H2667.06V316.3H2474.76V285.1ZM2474.76 220.6H2665.56V252.1H2514.36V304.9H2474.76V220.6ZM2568.96 384.7C2598.96 384.7 2622.56 389.2 2639.76 398.2C2656.96 407 2665.56 419.6 2665.56 436C2665.56 452.2 2656.96 464.7 2639.76 473.5C2622.56 482.5 2598.96 487 2568.96 487C2538.96 487 2515.36 482.5 2498.16 473.5C2481.16 464.7 2472.66 452.2 2472.66 436C2472.66 419.6 2481.16 407 2498.16 398.2C2515.36 389.2 2538.96 384.7 2568.96 384.7ZM2568.96 415C2556.56 415 2546.16 415.8 2537.76 417.4C2529.56 418.8 2523.36 421.1 2519.16 424.3C2514.96 427.3 2512.86 431.1 2512.86 435.7C2512.86 440.5 2514.96 444.5 2519.16 447.7C2523.36 450.7 2529.56 453 2537.76 454.6C2546.16 456 2556.56 456.7 2568.96 456.7C2581.36 456.7 2591.66 456 2599.86 454.6C2608.26 453 2614.56 450.7 2618.76 447.7C2622.96 444.5 2625.06 440.5 2625.06 435.7C2625.06 431.1 2622.96 427.3 2618.76 424.3C2614.56 421.1 2608.26 418.8 2599.86 417.4C2591.66 415.8 2581.36 415 2568.96 415ZM2769.94 225.4H2801.14V257.5C2801.14 273.3 2798.94 288.7 2794.54 303.7C2790.14 318.5 2783.24 331.8 2773.84 343.6C2764.44 355.4 2752.14 364.5 2736.94 370.9L2716.24 340.3C2729.04 334.5 2739.34 327.2 2747.14 318.4C2755.14 309.4 2760.94 299.6 2764.54 289C2768.14 278.4 2769.94 267.9 2769.94 257.5V225.4ZM2777.44 225.4H2808.64V257.5C2808.64 267.5 2810.34 277.3 2813.74 286.9C2817.14 296.3 2822.64 304.9 2830.24 312.7C2838.04 320.5 2847.94 326.9 2859.94 331.9L2838.94 362.2C2824.54 356.4 2812.74 348.2 2803.54 337.6C2794.54 326.8 2787.94 314.6 2783.74 301C2779.54 287.2 2777.44 272.7 2777.44 257.5V225.4ZM2918.74 208.9H2956.84V378.7H2918.74V208.9ZM2885.44 276.4H2929.54V308.5H2885.44V276.4ZM2860.24 214H2897.44V370H2860.24V214ZM2862.64 382.6C2882.04 382.6 2898.84 384.7 2913.04 388.9C2927.44 392.9 2938.54 398.8 2946.34 406.6C2954.14 414.4 2958.04 423.7 2958.04 434.5C2958.04 445.5 2954.14 454.9 2946.34 462.7C2938.54 470.5 2927.44 476.4 2913.04 480.4C2898.84 484.6 2882.04 486.7 2862.64 486.7C2843.24 486.7 2826.34 484.6 2811.94 480.4C2797.54 476.4 2786.44 470.5 2778.64 462.7C2770.84 454.9 2766.94 445.5 2766.94 434.5C2766.94 423.7 2770.84 414.4 2778.64 406.6C2786.44 398.8 2797.54 392.9 2811.94 388.9C2826.34 384.7 2843.24 382.6 2862.64 382.6ZM2862.64 412.6C2844.64 412.6 2830.74 414.4 2820.94 418C2811.34 421.6 2806.54 427.1 2806.54 434.5C2806.54 441.9 2811.34 447.5 2820.94 451.3C2830.74 454.9 2844.64 456.7 2862.64 456.7C2874.44 456.7 2884.44 455.9 2892.64 454.3C2901.04 452.5 2907.34 450 2911.54 446.8C2915.94 443.6 2918.14 439.5 2918.14 434.5C2918.14 427.1 2913.34 421.6 2903.74 418C2894.14 414.4 2880.44 412.6 2862.64 412.6ZM3176.41 208.6H3216.31V372.1H3176.41V208.6ZM3202.51 274H3251.41V307H3202.51V274ZM3029.41 382H3216.31V445H3069.31V467.2H3030.01V420.4H3177.01V408.4H3029.41V382ZM3030.01 458.2H3225.91V484.9H3030.01V458.2ZM3058.81 319.9H3098.71V359.5H3058.81V319.9ZM2996.71 369.7L2992.81 342.4C3009.21 342.4 3027.11 342.3 3046.51 342.1C3065.91 341.7 3085.71 341 3105.91 340C3126.11 339 3145.61 337.3 3164.41 334.9L3167.11 358.9C3147.71 362.3 3127.91 364.8 3107.71 366.4C3087.71 367.8 3068.21 368.7 3049.21 369.1C3030.41 369.5 3012.91 369.7 2996.71 369.7ZM2999.71 226H3157.51V252.4H2999.71V226ZM3078.61 257.5C3099.21 257.5 3115.61 260.7 3127.81 267.1C3140.21 273.5 3146.41 282.5 3146.41 294.1C3146.41 305.5 3140.21 314.5 3127.81 321.1C3115.61 327.5 3099.21 330.7 3078.61 330.7C3058.01 330.7 3041.61 327.5 3029.41 321.1C3017.21 314.5 3011.11 305.5 3011.11 294.1C3011.11 282.7 3017.21 273.8 3029.41 267.4C3041.61 260.8 3058.01 257.5 3078.61 257.5ZM3078.61 282.1C3069.21 282.1 3061.91 283.1 3056.71 285.1C3051.51 287.1 3048.91 290.1 3048.91 294.1C3048.91 298.1 3051.51 301.1 3056.71 303.1C3061.91 305.1 3069.21 306.1 3078.61 306.1C3088.21 306.1 3095.61 305.1 3100.81 303.1C3106.01 301.1 3108.61 298.1 3108.61 294.1C3108.61 290.1 3106.01 287.1 3100.81 285.1C3095.61 283.1 3088.21 282.1 3078.61 282.1ZM3058.81 206.5H3098.71V240.7H3058.81V206.5ZM3449.39 208.3H3489.59V486.1H3449.39V208.3ZM3479.39 314.8H3528.29V347.5H3479.39V314.8ZM3376.49 237.1H3415.79C3415.79 264.9 3411.79 291.2 3403.79 316C3395.99 340.8 3382.99 363.6 3364.79 384.4C3346.79 405 3322.39 423 3291.59 438.4L3269.09 408.1C3293.49 395.5 3313.59 381.3 3329.39 365.5C3345.39 349.7 3357.19 331.8 3364.79 311.8C3372.59 291.6 3376.49 269.1 3376.49 244.3V237.1ZM3284.39 237.1H3397.19V269.2H3284.39V237.1ZM3698.67 275.8H3751.47V308.2H3698.67V275.8ZM3740.37 208.9H3780.57V373.9H3740.37V208.9ZM3686.37 379.9C3705.97 379.9 3722.87 382 3737.07 386.2C3751.27 390.4 3762.17 396.5 3769.77 404.5C3777.57 412.5 3781.47 422.1 3781.47 433.3C3781.47 450.5 3772.97 463.7 3755.97 472.9C3738.97 482.3 3715.77 487 3686.37 487C3656.97 487 3633.77 482.3 3616.77 472.9C3599.77 463.7 3591.27 450.5 3591.27 433.3C3591.27 422.1 3595.07 412.5 3602.67 404.5C3610.47 396.5 3621.47 390.4 3635.67 386.2C3649.87 382 3666.77 379.9 3686.37 379.9ZM3686.37 410.2C3674.37 410.2 3664.27 411.1 3656.07 412.9C3647.87 414.5 3641.57 417 3637.17 420.4C3632.97 423.8 3630.87 428.1 3630.87 433.3C3630.87 438.5 3632.97 442.9 3637.17 446.5C3641.57 449.9 3647.87 452.5 3656.07 454.3C3664.27 455.9 3674.37 456.7 3686.37 456.7C3698.37 456.7 3708.47 455.9 3716.67 454.3C3724.87 452.5 3731.07 449.9 3735.27 446.5C3739.47 442.9 3741.57 438.5 3741.57 433.3C3741.57 428.1 3739.47 423.8 3735.27 420.4C3731.07 417 3724.87 414.5 3716.67 412.9C3708.47 411.1 3698.37 410.2 3686.37 410.2ZM3612.27 236.5H3644.67V254.2C3644.67 271.8 3641.87 288.6 3636.27 304.6C3630.67 320.6 3622.07 334.7 3610.47 346.9C3599.07 358.9 3584.47 367.9 3566.67 373.9L3546.57 342.4C3557.97 338.6 3567.77 333.5 3575.97 327.1C3584.37 320.7 3591.17 313.6 3596.37 305.8C3601.77 297.8 3605.77 289.4 3608.37 280.6C3610.97 271.8 3612.27 263 3612.27 254.2V236.5ZM3620.67 236.5H3652.47V253.9C3652.47 264.9 3654.67 275.7 3659.07 286.3C3663.47 296.9 3670.27 306.5 3679.47 315.1C3688.87 323.7 3700.87 330.5 3715.47 335.5L3695.97 366.7C3678.77 360.9 3664.57 352.4 3653.37 341.2C3642.37 329.8 3634.17 316.6 3628.77 301.6C3623.37 286.4 3620.67 270.5 3620.67 253.9V236.5ZM3557.37 225.7H3706.77V257.2H3557.37V225.7ZM3980.94 268H4031.64V299.8H3980.94V268ZM3980.34 322.6H4031.04V354.4H3980.34V322.6ZM3824.64 232H3977.34V263.5H3824.64V232ZM3902.64 271.9C3915.44 271.9 3926.74 274 3936.54 278.2C3946.34 282.4 3954.04 288.3 3959.64 295.9C3965.24 303.5 3968.04 312.3 3968.04 322.3C3968.04 332.1 3965.24 340.8 3959.64 348.4C3954.04 356 3946.34 361.9 3936.54 366.1C3926.74 370.3 3915.44 372.4 3902.64 372.4C3890.04 372.4 3878.84 370.3 3869.04 366.1C3859.24 361.9 3851.54 356 3845.94 348.4C3840.34 340.8 3837.54 332.1 3837.54 322.3C3837.54 312.3 3840.34 303.5 3845.94 295.9C3851.54 288.3 3859.24 282.4 3869.04 278.2C3878.84 274 3890.04 271.9 3902.64 271.9ZM3902.64 301C3894.24 301 3887.44 302.9 3882.24 306.7C3877.24 310.3 3874.74 315.5 3874.74 322.3C3874.74 329.1 3877.24 334.4 3882.24 338.2C3887.44 341.8 3894.24 343.6 3902.64 343.6C3911.04 343.6 3917.84 341.8 3923.04 338.2C3928.24 334.4 3930.84 329.1 3930.84 322.3C3930.84 315.5 3928.24 310.3 3923.04 306.7C3917.84 302.9 3911.04 301 3902.64 301ZM3882.84 206.5H3923.04V253.9H3882.84V206.5ZM4016.34 208.9H4056.54V374.2H4016.34V208.9ZM3870.54 384.7H3909.84V404.8H4016.94V384.7H4056.54V483.7H3870.54V384.7ZM3909.84 434.2V452.8H4016.94V434.2H3909.84ZM4170.22 377.8H4210.12V422.8H4170.22V377.8ZM4291.72 208.9H4331.62V486.7H4291.72V208.9ZM4106.02 440.5L4101.22 408.1C4118.02 408.1 4136.32 408 4156.12 407.8C4175.92 407.6 4196.22 406.9 4217.02 405.7C4238.02 404.5 4258.22 402.6 4277.62 400L4280.32 428.8C4260.12 432.4 4239.72 435.1 4219.12 436.9C4198.72 438.5 4178.92 439.5 4159.72 439.9C4140.52 440.3 4122.62 440.5 4106.02 440.5ZM4106.62 239.5H4274.02V270.7H4106.62V239.5ZM4190.32 281.5C4203.92 281.5 4215.92 283.7 4226.32 288.1C4236.72 292.5 4244.82 298.6 4250.62 306.4C4256.62 314.2 4259.62 323.3 4259.62 333.7C4259.62 343.9 4256.62 353 4250.62 361C4244.82 368.8 4236.72 374.9 4226.32 379.3C4215.92 383.7 4203.92 385.9 4190.32 385.9C4176.72 385.9 4164.72 383.7 4154.32 379.3C4143.92 374.9 4135.72 368.8 4129.72 361C4123.92 353 4121.02 343.9 4121.02 333.7C4121.02 323.3 4123.92 314.2 4129.72 306.4C4135.72 298.6 4143.92 292.5 4154.32 288.1C4164.72 283.7 4176.72 281.5 4190.32 281.5ZM4190.32 311.5C4181.12 311.5 4173.62 313.5 4167.82 317.5C4162.02 321.3 4159.12 326.7 4159.12 333.7C4159.12 340.9 4162.02 346.4 4167.82 350.2C4173.62 354 4181.12 355.9 4190.32 355.9C4199.52 355.9 4207.02 354 4212.82 350.2C4218.62 346.4 4221.52 340.9 4221.52 333.7C4221.52 326.7 4218.62 321.3 4212.82 317.5C4207.02 313.5 4199.52 311.5 4190.32 311.5ZM4170.22 209.8H4210.42V257.5H4170.22V209.8Z" fill="#333333"/>
<defs>
<linearGradient id="paint0_linear_11_151" x1="536" y1="616" x2="298.726" y2="469.526" gradientUnits="userSpaceOnUse">
<stop offset="0.432692" stop-color="#B7EE72"/>
<stop offset="1" stop-color="#26AC38"/>
</linearGradient>
</defs>
</svg>
